<?xml version="1.0" encoding="UTF-8"?>
<!DOCTYPE svg PUBLIC "-//W3C//DTD SVG 1.1//EN" "http://www.w3.org/Graphics/SVG/1.1/DTD/svg11.dtd">
<svg xmlns="http://www.w3.org/2000/svg" version="1.1" width="450px" height="206px" style="shape-rendering:geometricPrecision; text-rendering:geometricPrecision; image-rendering:optimizeQuality; fill-rule:evenodd; clip-rule:evenodd" xmlns:xlink="http://www.w3.org/1999/xlink">
<g><path style="opacity:1" fill="#5fadda" d="M -0.5,-0.5 C 149.5,-0.5 299.5,-0.5 449.5,-0.5C 449.5,31.8333 449.5,64.1667 449.5,96.5C 444.167,96.5 438.833,96.5 433.5,96.5C 433.5,102.167 433.5,107.833 433.5,113.5C 421.167,113.5 408.833,113.5 396.5,113.5C 396.102,117.76 396.102,121.927 396.5,126C 396.182,129.832 395.182,133.332 393.5,136.5C 391.719,133.777 390.052,130.943 388.5,128C 389.833,127.667 391.167,127.333 392.5,127C 391.906,126.536 391.239,126.369 390.5,126.5C 390.833,125.833 391.167,125.167 391.5,124.5C 391.5,123.833 391.167,123.5 390.5,123.5C 393.258,122.033 392.925,121.367 389.5,121.5C 389.827,116.786 389.493,112.12 388.5,107.5C 385.695,105.737 382.862,104.07 380,102.5C 379.333,79.8333 379.333,57.1667 380,34.5C 382.401,33.3977 384.901,33.231 387.5,34C 388.406,35.6995 388.739,37.5328 388.5,39.5C 391.167,39.5 393.833,39.5 396.5,39.5C 396.827,36.5182 396.827,33.6849 396.5,31C 390.833,30.7583 385.167,30.9249 379.5,31.5C 378.428,24.3999 376.928,17.3999 375,10.5C 373.559,16.8122 372.226,23.1455 371,29.5C 370.5,30 370,30.5 369.5,31C 354.489,31.1672 339.489,31.6672 324.5,32.5C 339.73,33.1741 354.897,33.8408 370,34.5C 370.5,54.8306 370.667,75.1639 370.5,95.5C 367.984,95.2447 365.65,94.4114 363.5,93C 354.062,84.8086 343.562,83.3086 332,88.5C 330.989,87.9444 330.156,87.2778 329.5,86.5C 328.998,84.9153 327.998,84.4153 326.5,85C 325.62,86.3561 325.286,87.8561 325.5,89.5C 323.744,90.5521 323.077,92.2188 323.5,94.5C 317.229,92.7973 314.229,95.1306 314.5,101.5C 313.778,101.082 313.278,100.416 313,99.5C 312.626,100.416 312.126,101.25 311.5,102C 308.321,103.558 305.321,105.391 302.5,107.5C 301.507,112.12 301.173,116.786 301.5,121.5C 299.5,121.5 297.5,121.5 295.5,121.5C 295.25,115.311 295.083,108.978 295,102.5C 292.408,103.982 290.075,103.648 288,101.5C 287.558,103.679 286.558,104.345 285,103.5C 284.333,105.167 284.333,106.833 285,108.5C 285.893,107.289 286.726,107.289 287.5,108.5C 286.675,109.386 285.675,109.719 284.5,109.5C 284.119,111.942 284.786,112.609 286.5,111.5C 287.5,112 288.5,112.5 289.5,113C 287.527,113.495 285.527,113.662 283.5,113.5C 283.81,110.287 283.477,107.287 282.5,104.5C 279.5,104.5 276.5,104.5 273.5,104.5C 273.5,99.8333 273.5,95.1667 273.5,90.5C 274.482,87.0381 274.815,83.3714 274.5,79.5C 272.167,79.5 269.833,79.5 267.5,79.5C 267.5,83.1667 267.5,86.8333 267.5,90.5C 267.46,93.8806 267.793,97.2139 268.5,100.5C 268.5,101.833 268.5,103.167 268.5,104.5C 265.167,104.5 261.833,104.5 258.5,104.5C 258.5,107.833 258.5,111.167 258.5,114.5C 256.473,114.338 254.473,114.505 252.5,115C 251.57,116.395 251.57,117.895 252.5,119.5C 250.595,127.466 248.595,135.133 246.5,142.5C 245.167,140.833 245.167,139.167 246.5,137.5C 247.634,135.034 247.801,132.367 247,129.5C 245.51,128.272 244.01,128.272 242.5,129.5C 243.167,128.167 243.833,126.833 244.5,125.5C 244.631,124.624 244.298,123.957 243.5,123.5C 239.34,121.588 235.34,119.421 231.5,117C 236.03,114.573 240.363,111.906 244.5,109C 240.363,106.094 236.03,103.427 231.5,101C 236.03,98.5726 240.363,95.906 244.5,93C 240.104,90.5236 235.771,87.8569 231.5,85C 236.052,81.7224 241.052,79.5558 246.5,78.5C 247.825,73.0992 247.825,67.5992 246.5,62C 233.838,61.5001 221.171,61.3334 208.5,61.5C 208.5,62.5 208.5,63.5 208.5,64.5C 208.5,68.1667 208.5,71.8333 208.5,75.5C 208.5,76.5 208.5,77.5 208.5,78.5C 214.126,79.8084 219.459,81.9751 224.5,85C 220.48,87.0344 216.48,89.0344 212.5,91C 209.742,93.0968 210.075,94.5968 213.5,95.5C 212.737,96.2679 211.737,96.7679 210.5,97C 211.167,97.3333 211.833,97.6667 212.5,98C 209.518,98.498 206.518,98.6646 203.5,98.5C 203.666,102.846 203.499,107.179 203,111.5C 201.272,112.352 201.105,113.352 202.5,114.5C 200.5,114.5 198.5,114.5 196.5,114.5C 196.5,111.167 196.5,107.833 196.5,104.5C 193.167,104.5 189.833,104.5 186.5,104.5C 187.146,95.8483 187.479,87.1816 187.5,78.5C 185.167,78.5 182.833,78.5 180.5,78.5C 180.5,81.5 180.5,84.5 180.5,87.5C 180.808,89.924 180.474,92.2573 179.5,94.5C 171.443,98.353 163.109,101.52 154.5,104C 153.405,105.675 151.905,106.842 150,107.5C 149.501,112.155 149.334,116.821 149.5,121.5C 145.958,121.187 142.625,121.521 139.5,122.5C 138.402,121.399 138.235,120.066 139,118.5C 139.556,120.595 140.056,120.762 140.5,119C 139.486,117.359 138.486,116.192 137.5,115.5C 138.978,114.552 139.978,113.219 140.5,111.5C 141.578,115.27 142.245,115.27 142.5,111.5C 141.867,106.029 140.7,100.696 139,95.5C 136.281,94.5562 133.448,94.2229 130.5,94.5C 130.5,91.5 130.5,88.5 130.5,85.5C 133.018,84.2405 132.852,82.9072 130,81.5C 129.586,81.9574 129.086,82.2907 128.5,82.5C 127.503,75.1968 127.169,67.8635 127.5,60.5C 123.5,60.5 119.5,60.5 115.5,60.5C 115.5,67.8333 115.5,75.1667 115.5,82.5C 113.167,82.5 110.833,82.5 108.5,82.5C 108.5,88.1667 108.5,93.8333 108.5,99.5C 104.5,99.5 100.5,99.5 96.5,99.5C 96.5,108.167 96.5,116.833 96.5,125.5C 93.8333,125.5 91.1667,125.5 88.5,125.5C 88.8957,128.044 88.229,130.211 86.5,132C 83.0256,133.349 79.6923,133.683 76.5,133C 77.4825,124.919 77.8158,116.752 77.5,108.5C 72.8333,108.5 68.1667,108.5 63.5,108.5C 63.5,113.833 63.5,119.167 63.5,124.5C 60.8333,124.5 58.1667,124.5 55.5,124.5C 57.2875,117.648 54.9542,113.148 48.5,111C 46.8866,107.88 44.5533,105.713 41.5,104.5C 41.5,86.8333 41.5,69.1667 41.5,51.5C 97.4842,51.1655 97.4842,50.1655 41.5,48.5C 39.8789,42.9167 38.5456,37.25 37.5,31.5C 35.5812,37.4259 33.9145,43.4259 32.5,49.5C 31.2278,50.046 29.8945,50.3793 28.5,50.5C 24.9682,49.033 21.3016,48.3664 17.5,48.5C 17.5,51.5 17.5,54.5 17.5,57.5C 20.1667,57.5 22.8333,57.5 25.5,57.5C 25.5,55.5 25.5,53.5 25.5,51.5C 27.9201,51.2924 30.2534,51.6258 32.5,52.5C 33.8333,73.5 33.8333,94.5 32.5,115.5C 30.4072,120.25 30.0739,125.083 31.5,130C 30.244,130.417 29.5774,131.25 29.5,132.5C 28.5655,133.568 28.2322,134.901 28.5,136.5C 27.1667,136.5 25.8333,136.5 24.5,136.5C 24.8044,127.779 24.4711,119.112 23.5,110.5C 25.8333,109.833 28.1667,109.167 30.5,108.5C 25.9926,104.824 21.6593,100.99 17.5,97C 11.5092,96.5005 5.50924,96.3338 -0.5,96.5C -0.5,64.1667 -0.5,31.8333 -0.5,-0.5 Z"/></g>
<g><path style="opacity:1" fill="#79abb0" d="M 246.5,78.5 C 246.715,76.8212 246.048,75.8212 244.5,75.5C 244.187,71.9581 244.521,68.6248 245.5,65.5C 245.336,68.1873 245.503,70.854 246,73.5C 246.167,71.8333 246.333,70.1667 246.5,68.5C 246.444,66.3603 245.777,64.6936 244.5,63.5C 244.565,63.0618 244.399,62.7284 244,62.5C 232.419,64.4665 220.586,65.1331 208.5,64.5C 208.5,63.5 208.5,62.5 208.5,61.5C 221.171,61.3334 233.838,61.5001 246.5,62C 247.825,67.5992 247.825,73.0992 246.5,78.5 Z"/></g>
<g><path style="opacity:1" fill="#7cb8df" d="M 130.5,85.5 C 128.99,84.2721 127.49,84.2721 126,85.5C 125.502,88.4816 125.335,91.4816 125.5,94.5C 122.813,94.3359 120.146,94.5026 117.5,95C 116.874,95.7504 116.374,96.5838 116,97.5C 115.352,102.703 114.519,107.87 113.5,113C 113.833,113.5 114.167,114 114.5,114.5C 115.925,109.27 117.091,109.27 118,114.5C 118.49,113.207 118.657,111.873 118.5,110.5C 119.5,110.5 120.5,110.5 121.5,110.5C 121.343,111.873 121.51,113.207 122,114.5C 123.672,109.389 124.838,109.389 125.5,114.5C 124.979,118.481 124.646,122.481 124.5,126.5C 121.391,126.264 118.391,126.597 115.5,127.5C 114.833,127.167 114.167,126.833 113.5,126.5C 108.609,126.532 103.943,127.199 99.5,128.5C 96.8284,129.501 94.1618,130.501 91.5,131.5C 87.6923,133.573 84.0256,135.906 80.5,138.5C 79.4981,133.995 77.1648,133.328 73.5,136.5C 73.1961,135.85 72.8627,135.183 72.5,134.5C 67.1977,133.337 61.8643,133.171 56.5,134C 57.056,134.383 57.3893,134.883 57.5,135.5C 57.628,137.655 57.128,139.655 56,141.5C 52.9433,140.549 49.7766,140.216 46.5,140.5C 46.2601,137.421 46.5934,134.421 47.5,131.5C 42.8333,130.167 38.1667,130.167 33.5,131.5C 34.6119,132.265 35.2786,133.265 35.5,134.5C 34.3213,138.327 33.3213,142.327 32.5,146.5C 32.1276,141.429 31.1276,136.762 29.5,132.5C 29.5774,131.25 30.244,130.417 31.5,130C 30.0739,125.083 30.4072,120.25 32.5,115.5C 33.8333,94.5 33.8333,73.5 32.5,52.5C 30.2534,51.6258 27.9201,51.2924 25.5,51.5C 25.5,53.5 25.5,55.5 25.5,57.5C 22.8333,57.5 20.1667,57.5 17.5,57.5C 17.5,54.5 17.5,51.5 17.5,48.5C 21.3016,48.3664 24.9682,49.033 28.5,50.5C 29.8945,50.3793 31.2278,50.046 32.5,49.5C 33.9145,43.4259 35.5812,37.4259 37.5,31.5C 38.5456,37.25 39.8789,42.9167 41.5,48.5C 97.4842,50.1655 97.4842,51.1655 41.5,51.5C 41.5,69.1667 41.5,86.8333 41.5,104.5C 44.5533,105.713 46.8866,107.88 48.5,111C 54.9542,113.148 57.2875,117.648 55.5,124.5C 58.1667,124.5 60.8333,124.5 63.5,124.5C 63.5,119.167 63.5,113.833 63.5,108.5C 68.1667,108.5 72.8333,108.5 77.5,108.5C 77.8158,116.752 77.4825,124.919 76.5,133C 79.6923,133.683 83.0256,133.349 86.5,132C 88.229,130.211 88.8957,128.044 88.5,125.5C 91.1667,125.5 93.8333,125.5 96.5,125.5C 96.5,116.833 96.5,108.167 96.5,99.5C 100.5,99.5 104.5,99.5 108.5,99.5C 108.5,93.8333 108.5,88.1667 108.5,82.5C 110.833,82.5 113.167,82.5 115.5,82.5C 115.5,75.1667 115.5,67.8333 115.5,60.5C 119.5,60.5 123.5,60.5 127.5,60.5C 127.169,67.8635 127.503,75.1968 128.5,82.5C 129.086,82.2907 129.586,81.9574 130,81.5C 132.852,82.9072 133.018,84.2405 130.5,85.5 Z"/></g>
<g><path style="opacity:1" fill="#90b18b" d="M 244.5,63.5 C 244.833,64.1667 245.167,64.8333 245.5,65.5C 244.521,68.6248 244.187,71.9581 244.5,75.5C 243.833,75.5 243.167,75.5 242.5,75.5C 242.5,75.1667 242.5,74.8333 242.5,74.5C 242.5,73.8333 242.5,73.1667 242.5,72.5C 242.5,70.1667 242.5,67.8333 242.5,65.5C 240.5,65.5 238.5,65.5 236.5,65.5C 235.833,65.5 235.167,65.5 234.5,65.5C 229.833,65.5 225.167,65.5 220.5,65.5C 220.5,67.8333 220.5,70.1667 220.5,72.5C 220.5,73.1667 220.5,73.8333 220.5,74.5C 219.523,71.7131 219.19,68.7131 219.5,65.5C 217.167,65.5 214.833,65.5 212.5,65.5C 212.443,70.6817 211.776,70.6817 210.5,65.5C 209.513,68.7683 209.18,72.1016 209.5,75.5C 209.167,75.5 208.833,75.5 208.5,75.5C 208.5,71.8333 208.5,68.1667 208.5,64.5C 220.586,65.1331 232.419,64.4665 244,62.5C 244.399,62.7284 244.565,63.0618 244.5,63.5 Z"/></g>
<g><path style="opacity:1" fill="#5dacde" d="M 236.5,65.5 C 238.5,65.5 240.5,65.5 242.5,65.5C 242.5,67.8333 242.5,70.1667 242.5,72.5C 240.5,72.5 238.5,72.5 236.5,72.5C 236.5,70.1667 236.5,67.8333 236.5,65.5 Z"/></g>
<g><path style="opacity:1" fill="#5eacdd" d="M 234.5,65.5 C 234.5,67.8333 234.5,70.1667 234.5,72.5C 229.833,72.5 225.167,72.5 220.5,72.5C 220.5,70.1667 220.5,67.8333 220.5,65.5C 225.167,65.5 229.833,65.5 234.5,65.5 Z"/></g>
<g><path style="opacity:1" fill="#412f0c" d="M 244.5,63.5 C 245.777,64.6936 246.444,66.3603 246.5,68.5C 246.333,70.1667 246.167,71.8333 246,73.5C 245.503,70.854 245.336,68.1873 245.5,65.5C 245.167,64.8333 244.833,64.1667 244.5,63.5 Z"/></g>
<g><path style="opacity:1" fill="#6fadc9" d="M 220.5,74.5 C 227.833,74.5 235.167,74.5 242.5,74.5C 242.5,74.8333 242.5,75.1667 242.5,75.5C 231.5,75.5 220.5,75.5 209.5,75.5C 209.18,72.1016 209.513,68.7683 210.5,65.5C 211.776,70.6817 212.443,70.6817 212.5,65.5C 214.833,65.5 217.167,65.5 219.5,65.5C 219.19,68.7131 219.523,71.7131 220.5,74.5 Z"/></g>
<g><path style="opacity:1" fill="#7dafab" d="M 234.5,65.5 C 235.167,65.5 235.833,65.5 236.5,65.5C 236.5,67.8333 236.5,70.1667 236.5,72.5C 238.5,72.5 240.5,72.5 242.5,72.5C 242.5,73.1667 242.5,73.8333 242.5,74.5C 235.167,74.5 227.833,74.5 220.5,74.5C 220.5,73.8333 220.5,73.1667 220.5,72.5C 225.167,72.5 229.833,72.5 234.5,72.5C 234.5,70.1667 234.5,67.8333 234.5,65.5 Z"/></g>
<g><path style="opacity:1" fill="#c29e19" d="M 273.5,90.5 C 273.808,88.076 273.474,85.7427 272.5,83.5C 271.673,87.4592 271.173,91.4592 271,95.5C 270.827,91.4592 270.327,87.4592 269.5,83.5C 268.832,85.9688 268.165,88.3021 267.5,90.5C 267.5,86.8333 267.5,83.1667 267.5,79.5C 269.833,79.5 272.167,79.5 274.5,79.5C 274.815,83.3714 274.482,87.0381 273.5,90.5 Z"/></g>
<g><path style="opacity:1" fill="#ad881b" d="M 186.5,104.5 C 186.5,104.833 186.5,105.167 186.5,105.5C 185.566,102.344 184.899,99.0109 184.5,95.5C 183.5,95.5 182.5,95.5 181.5,95.5C 181.806,92.6146 181.473,89.9479 180.5,87.5C 180.5,84.5 180.5,81.5 180.5,78.5C 182.833,78.5 185.167,78.5 187.5,78.5C 187.479,87.1816 187.146,95.8483 186.5,104.5 Z"/></g>
<g><path style="opacity:1" fill="#7fb9df" d="M 390.5,123.5 C 384.955,123.256 379.455,122.589 374,121.5C 371.012,122.991 368.845,125.324 367.5,128.5C 355.185,129.499 342.851,129.832 330.5,129.5C 330.497,124.473 330.164,119.473 329.5,114.5C 330.835,109.465 332.001,109.465 333,114.5C 333.49,113.207 333.657,111.873 333.5,110.5C 334.5,110.5 335.5,110.5 336.5,110.5C 336.557,115.682 337.224,115.682 338.5,110.5C 339.243,111.908 340.077,113.241 341,114.5C 341.186,107.746 340.019,101.246 337.5,95C 334.854,94.5026 332.187,94.3359 329.5,94.5C 329.5,91.8333 329.5,89.1667 329.5,86.5C 330.156,87.2778 330.989,87.9444 332,88.5C 343.562,83.3086 354.062,84.8086 363.5,93C 365.65,94.4114 367.984,95.2447 370.5,95.5C 370.667,75.1639 370.5,54.8306 370,34.5C 354.897,33.8408 339.73,33.1741 324.5,32.5C 339.489,31.6672 354.489,31.1672 369.5,31C 370,30.5 370.5,30 371,29.5C 372.226,23.1455 373.559,16.8122 375,10.5C 376.928,17.3999 378.428,24.3999 379.5,31.5C 385.167,30.9249 390.833,30.7583 396.5,31C 396.827,33.6849 396.827,36.5182 396.5,39.5C 393.833,39.5 391.167,39.5 388.5,39.5C 388.739,37.5328 388.406,35.6995 387.5,34C 384.901,33.231 382.401,33.3977 380,34.5C 379.333,57.1667 379.333,79.8333 380,102.5C 382.862,104.07 385.695,105.737 388.5,107.5C 389.493,112.12 389.827,116.786 389.5,121.5C 392.925,121.367 393.258,122.033 390.5,123.5 Z"/></g>
<g><path style="opacity:1" fill="#8f7d49" d="M 325.5,89.5 C 325.923,91.7812 325.256,93.4479 323.5,94.5C 323.077,92.2188 323.744,90.5521 325.5,89.5 Z"/></g>
<g><path style="opacity:1" fill="#947413" d="M 273.5,90.5 C 273.5,95.1667 273.5,99.8333 273.5,104.5C 272.833,104.167 272.167,103.833 271.5,103.5C 272.66,101.797 271.993,101.131 269.5,101.5C 269.5,100.833 269.167,100.5 268.5,100.5C 267.793,97.2139 267.46,93.8806 267.5,90.5C 268.165,88.3021 268.832,85.9688 269.5,83.5C 270.327,87.4592 270.827,91.4592 271,95.5C 271.173,91.4592 271.673,87.4592 272.5,83.5C 273.474,85.7427 273.808,88.076 273.5,90.5 Z"/></g>
<g><path style="opacity:1" fill="#c9b023" d="M 208.5,75.5 C 208.833,75.5 209.167,75.5 209.5,75.5C 220.5,75.5 231.5,75.5 242.5,75.5C 243.167,75.5 243.833,75.5 244.5,75.5C 246.048,75.8212 246.715,76.8212 246.5,78.5C 241.052,79.5558 236.052,81.7224 231.5,85C 235.771,87.8569 240.104,90.5236 244.5,93C 240.363,95.906 236.03,98.5726 231.5,101C 236.03,103.427 240.363,106.094 244.5,109C 240.363,111.906 236.03,114.573 231.5,117C 235.34,119.421 239.34,121.588 243.5,123.5C 244.298,123.957 244.631,124.624 244.5,125.5C 242.766,124.438 241.099,124.438 239.5,125.5C 235.964,122.809 232.131,120.476 228,118.5C 223.09,119.7 218.923,122.033 215.5,125.5C 213.528,124.483 212.195,125.15 211.5,127.5C 210.199,126.116 210.199,124.616 211.5,123C 215.779,121.527 219.779,119.527 223.5,117C 218.788,114.651 214.455,111.817 210.5,108.5C 215.008,105.746 219.674,103.246 224.5,101C 220.807,99.1534 217.14,97.3201 213.5,95.5C 210.075,94.5968 209.742,93.0968 212.5,91C 216.48,89.0344 220.48,87.0344 224.5,85C 219.459,81.9751 214.126,79.8084 208.5,78.5C 208.5,77.5 208.5,76.5 208.5,75.5 Z"/></g>
<g><path style="opacity:1" fill="#6db1da" d="M 226.5,86.5 C 231.265,88.3815 235.932,90.5482 240.5,93C 236.167,95.1667 231.833,97.3333 227.5,99.5C 223.34,97.5875 219.34,95.4209 215.5,93C 219.23,90.807 222.897,88.6404 226.5,86.5 Z"/></g>
<g><path style="opacity:1" fill="#5facdd" d="M 218.5,79.5 C 224.5,78.1667 230.5,78.1667 236.5,79.5C 233.477,80.4284 230.643,81.7617 228,83.5C 224.87,82.0163 221.703,80.6829 218.5,79.5 Z"/></g>
<g><path style="opacity:1" fill="#a4b16b" d="M 236.5,79.5 C 230.5,78.1667 224.5,78.1667 218.5,79.5C 217.957,79.44 217.624,79.1067 217.5,78.5C 224.167,77.1667 230.833,77.1667 237.5,78.5C 237.376,79.1067 237.043,79.44 236.5,79.5 Z"/></g>
<g><path style="opacity:1" fill="#7db9e0" d="M -0.5,96.5 C 5.50924,96.3338 11.5092,96.5005 17.5,97C 21.6593,100.99 25.9926,104.824 30.5,108.5C 28.1667,109.167 25.8333,109.833 23.5,110.5C 24.4711,119.112 24.8044,127.779 24.5,136.5C 25.8333,136.5 27.1667,136.5 28.5,136.5C 28.5,139.5 28.5,142.5 28.5,145.5C 26.9519,145.821 26.2852,146.821 26.5,148.5C 17.5839,149.471 8.58387,149.804 -0.5,149.5C -0.5,131.833 -0.5,114.167 -0.5,96.5 Z"/></g>
<g><path style="opacity:1" fill="#746728" d="M 181.5,95.5 C 182.5,95.5 183.5,95.5 184.5,95.5C 184.899,99.0109 185.566,102.344 186.5,105.5C 186.585,106.995 185.919,107.995 184.5,108.5C 184.522,107.005 184.189,105.338 183.5,103.5C 182.817,103.863 182.15,104.196 181.5,104.5C 181.5,101.5 181.5,98.5 181.5,95.5 Z"/></g>
<g><path style="opacity:1" fill="#7bb7dc" d="M 314.5,101.5 C 313.9,104.999 313.234,108.499 312.5,112C 312.833,112.833 313.167,113.667 313.5,114.5C 314.833,109.167 316.167,109.167 317.5,114.5C 318.833,109.167 320.167,109.167 321.5,114.5C 323.058,109.306 324.058,109.306 324.5,114.5C 323.665,121.817 323.498,129.151 324,136.5C 322.007,138.818 320.841,141.484 320.5,144.5C 321.833,144.5 323.167,144.5 324.5,144.5C 324.5,145.5 324.5,146.5 324.5,147.5C 322.5,147.5 320.5,147.5 318.5,147.5C 316.649,139.195 315.983,130.862 316.5,122.5C 308.167,122.5 299.833,122.5 291.5,122.5C 292.092,125.127 292.425,127.794 292.5,130.5C 290.694,126.322 289.027,121.989 287.5,117.5C 288.167,116.833 288.833,116.167 289.5,115.5C 287.257,114.526 284.924,114.192 282.5,114.5C 282.5,111.167 282.5,107.833 282.5,104.5C 283.477,107.287 283.81,110.287 283.5,113.5C 285.527,113.662 287.527,113.495 289.5,113C 288.5,112.5 287.5,112 286.5,111.5C 284.786,112.609 284.119,111.942 284.5,109.5C 285.675,109.719 286.675,109.386 287.5,108.5C 286.726,107.289 285.893,107.289 285,108.5C 284.333,106.833 284.333,105.167 285,103.5C 286.558,104.345 287.558,103.679 288,101.5C 290.075,103.648 292.408,103.982 295,102.5C 295.083,108.978 295.25,115.311 295.5,121.5C 297.5,121.5 299.5,121.5 301.5,121.5C 301.173,116.786 301.507,112.12 302.5,107.5C 305.321,105.391 308.321,103.558 311.5,102C 312.126,101.25 312.626,100.416 313,99.5C 313.278,100.416 313.778,101.082 314.5,101.5 Z"/></g>
<g><path style="opacity:1" fill="#78b5dc" d="M 226.5,102.5 C 231.09,104.128 235.423,106.295 239.5,109C 235.66,111.421 231.66,113.588 227.5,115.5C 223.34,113.588 219.34,111.421 215.5,109C 219.23,106.807 222.897,104.64 226.5,102.5 Z"/></g>
<g><path style="opacity:1" fill="#413a1b" d="M 269.5,101.5 C 271.993,101.131 272.66,101.797 271.5,103.5C 271.461,104.583 271.127,105.583 270.5,106.5C 273.081,108.171 272.748,108.671 269.5,108C 269.778,105.861 269.778,103.695 269.5,101.5 Z"/></g>
<g><path style="opacity:1" fill="#7eb9df" d="M 180.5,87.5 C 181.473,89.9479 181.806,92.6146 181.5,95.5C 181.5,98.5 181.5,101.5 181.5,104.5C 178.5,104.5 175.5,104.5 172.5,104.5C 172.5,107.833 172.5,111.167 172.5,114.5C 170.167,114.5 167.833,114.5 165.5,114.5C 165.36,116.124 166.027,117.29 167.5,118C 166.118,121.021 165.118,124.187 164.5,127.5C 164.253,128.713 163.586,129.38 162.5,129.5C 162.674,127.139 163.007,124.806 163.5,122.5C 155.5,122.5 147.5,122.5 139.5,122.5C 142.625,121.521 145.958,121.187 149.5,121.5C 149.334,116.821 149.501,112.155 150,107.5C 151.905,106.842 153.405,105.675 154.5,104C 163.109,101.52 171.443,98.353 179.5,94.5C 180.474,92.2573 180.808,89.924 180.5,87.5 Z"/></g>
<g><path style="opacity:1" fill="#fada1b" d="M 329.5,86.5 C 329.5,89.1667 329.5,91.8333 329.5,94.5C 332.187,94.3359 334.854,94.5026 337.5,95C 340.019,101.246 341.186,107.746 341,114.5C 340.077,113.241 339.243,111.908 338.5,110.5C 337.224,115.682 336.557,115.682 336.5,110.5C 335.5,110.5 334.5,110.5 333.5,110.5C 333.657,111.873 333.49,113.207 333,114.5C 332.001,109.465 330.835,109.465 329.5,114.5C 328.051,109.372 326.384,109.372 324.5,114.5C 324.058,109.306 323.058,109.306 321.5,114.5C 320.167,109.167 318.833,109.167 317.5,114.5C 316.167,109.167 314.833,109.167 313.5,114.5C 313.167,113.667 312.833,112.833 312.5,112C 313.234,108.499 313.9,104.999 314.5,101.5C 314.229,95.1306 317.229,92.7973 323.5,94.5C 325.256,93.4479 325.923,91.7812 325.5,89.5C 325.286,87.8561 325.62,86.3561 326.5,85C 327.998,84.4153 328.998,84.9153 329.5,86.5 Z"/></g>
<g><path style="opacity:1" fill="#f9da1a" d="M 130.5,85.5 C 130.5,88.5 130.5,91.5 130.5,94.5C 133.448,94.2229 136.281,94.5562 139,95.5C 140.7,100.696 141.867,106.029 142.5,111.5C 142.245,115.27 141.578,115.27 140.5,111.5C 140.44,110.957 140.107,110.624 139.5,110.5C 138.224,115.682 137.557,115.682 137.5,110.5C 136.5,110.5 135.5,110.5 134.5,110.5C 134.768,112.099 134.434,113.432 133.5,114.5C 133.5,113.167 133.5,111.833 133.5,110.5C 132.5,110.5 131.5,110.5 130.5,110.5C 130.5,111.833 130.5,113.167 130.5,114.5C 129.768,113.192 128.934,111.858 128,110.5C 127.066,111.858 126.232,113.192 125.5,114.5C 124.838,109.389 123.672,109.389 122,114.5C 121.51,113.207 121.343,111.873 121.5,110.5C 120.5,110.5 119.5,110.5 118.5,110.5C 118.657,111.873 118.49,113.207 118,114.5C 117.091,109.27 115.925,109.27 114.5,114.5C 114.167,114 113.833,113.5 113.5,113C 114.519,107.87 115.352,102.703 116,97.5C 116.374,96.5838 116.874,95.7504 117.5,95C 120.146,94.5026 122.813,94.3359 125.5,94.5C 125.335,91.4816 125.502,88.4816 126,85.5C 127.49,84.2721 128.99,84.2721 130.5,85.5 Z"/></g>
<g><path style="opacity:1" fill="#a7c399" d="M 140.5,111.5 C 139.978,113.219 138.978,114.552 137.5,115.5C 136.71,114.391 136.21,113.058 136,111.5C 135.781,112.938 135.281,114.271 134.5,115.5C 133.893,115.376 133.56,115.043 133.5,114.5C 134.434,113.432 134.768,112.099 134.5,110.5C 135.5,110.5 136.5,110.5 137.5,110.5C 137.557,115.682 138.224,115.682 139.5,110.5C 140.107,110.624 140.44,110.957 140.5,111.5 Z"/></g>
<g><path style="opacity:1" fill="#7bb5db" d="M 213.5,95.5 C 217.14,97.3201 220.807,99.1534 224.5,101C 219.674,103.246 215.008,105.746 210.5,108.5C 214.455,111.817 218.788,114.651 223.5,117C 219.779,119.527 215.779,121.527 211.5,123C 210.199,124.616 210.199,126.116 211.5,127.5C 212.525,127.897 212.692,128.563 212,129.5C 210.708,128.209 209.542,128.209 208.5,129.5C 207.686,131.631 207.186,133.964 207,136.5C 204.802,129.081 203.302,121.748 202.5,114.5C 201.105,113.352 201.272,112.352 203,111.5C 203.499,107.179 203.666,102.846 203.5,98.5C 206.518,98.6646 209.518,98.498 212.5,98C 211.833,97.6667 211.167,97.3333 210.5,97C 211.737,96.7679 212.737,96.2679 213.5,95.5 Z"/></g>
<g><path style="opacity:1" fill="#84bbdc" d="M 239.5,125.5 C 231.5,125.5 223.5,125.5 215.5,125.5C 218.923,122.033 223.09,119.7 228,118.5C 232.131,120.476 235.964,122.809 239.5,125.5 Z"/></g>
<g><path style="opacity:1" fill="#78b6df" d="M 449.5,96.5 C 449.5,113.833 449.5,131.167 449.5,148.5C 442.833,148.5 436.167,148.5 429.5,148.5C 428.833,148.5 428.167,148.5 427.5,148.5C 427.663,146.143 427.497,143.81 427,141.5C 423.541,140.867 420.041,140.2 416.5,139.5C 415.688,137.055 414.688,134.722 413.5,132.5C 410.738,131.215 406.738,131.215 401.5,132.5C 401.5,135.167 401.5,137.833 401.5,140.5C 397.517,141.428 394.85,140.095 393.5,136.5C 395.182,133.332 396.182,129.832 396.5,126C 396.102,121.927 396.102,117.76 396.5,113.5C 408.833,113.5 421.167,113.5 433.5,113.5C 433.5,107.833 433.5,102.167 433.5,96.5C 438.833,96.5 444.167,96.5 449.5,96.5 Z"/></g>
<g><path style="opacity:1" fill="#85bada" d="M 133.5,114.5 C 133.56,115.043 133.893,115.376 134.5,115.5C 135.281,114.271 135.781,112.938 136,111.5C 136.21,113.058 136.71,114.391 137.5,115.5C 138.486,116.192 139.486,117.359 140.5,119C 140.056,120.762 139.556,120.595 139,118.5C 138.235,120.066 138.402,121.399 139.5,122.5C 139.032,130.3 138.365,138.3 137.5,146.5C 135.283,147.369 132.95,147.702 130.5,147.5C 130.885,136.46 130.885,125.46 130.5,114.5C 130.5,113.167 130.5,111.833 130.5,110.5C 131.5,110.5 132.5,110.5 133.5,110.5C 133.5,111.833 133.5,113.167 133.5,114.5 Z"/></g>
<g><path style="opacity:1" fill="#c0a419" d="M 186.5,105.5 C 186.5,105.167 186.5,104.833 186.5,104.5C 189.833,104.5 193.167,104.5 196.5,104.5C 196.5,107.833 196.5,111.167 196.5,114.5C 198.5,114.5 200.5,114.5 202.5,114.5C 203.302,121.748 204.802,129.081 207,136.5C 207.186,133.964 207.686,131.631 208.5,129.5C 208.5,132.167 208.5,134.833 208.5,137.5C 207.387,138.946 207.22,140.613 208,142.5C 208.383,141.944 208.883,141.611 209.5,141.5C 208.962,143.117 208.629,144.784 208.5,146.5C 206.167,146.5 203.833,146.5 201.5,146.5C 201.5,147.833 201.5,149.167 201.5,150.5C 199.167,150.5 196.833,150.5 194.5,150.5C 194.5,151.833 194.5,153.167 194.5,154.5C 193.604,153.494 192.938,153.494 192.5,154.5C 189.752,153.881 186.919,153.548 184,153.5C 181.071,153.525 178.571,154.191 176.5,155.5C 175.833,153.833 175.167,152.167 174.5,150.5C 171.5,150.5 168.5,150.5 165.5,150.5C 165.5,149.167 165.5,147.833 165.5,146.5C 170.159,146.985 171.492,145.152 169.5,141C 168.207,140.51 166.873,140.343 165.5,140.5C 165.5,141.833 165.5,143.167 165.5,144.5C 164.167,141.833 164.167,139.167 165.5,136.5C 177.655,137.495 189.989,137.829 202.5,137.5C 201.34,131.861 200.34,126.195 199.5,120.5C 189.5,120.5 179.5,120.5 169.5,120.5C 169.164,125.886 167.83,130.886 165.5,135.5C 163.621,134.105 162.621,132.105 162.5,129.5C 163.586,129.38 164.253,128.713 164.5,127.5C 165.118,124.187 166.118,121.021 167.5,118C 166.027,117.29 165.36,116.124 165.5,114.5C 167.833,114.5 170.167,114.5 172.5,114.5C 172.5,111.167 172.5,107.833 172.5,104.5C 175.5,104.5 178.5,104.5 181.5,104.5C 182.15,104.196 182.817,103.863 183.5,103.5C 184.189,105.338 184.522,107.005 184.5,108.5C 185.919,107.995 186.585,106.995 186.5,105.5 Z"/></g>
<g><path style="opacity:1" fill="#fce20d" d="M 99.5,128.5 C 100.496,128.414 101.329,128.748 102,129.5C 104.419,134.997 106.252,140.664 107.5,146.5C 105.249,147.695 102.915,148.695 100.5,149.5C 99.2921,150.234 97.9587,150.567 96.5,150.5C 94.0464,145.034 92.0464,139.367 90.5,133.5C 90.8627,132.817 91.1961,132.15 91.5,131.5C 94.1618,130.501 96.8284,129.501 99.5,128.5 Z"/></g>
<g><path style="opacity:1" fill="#0b1015" d="M 165.5,136.5 C 165.5,136.167 165.5,135.833 165.5,135.5C 167.83,130.886 169.164,125.886 169.5,120.5C 179.5,120.5 189.5,120.5 199.5,120.5C 200.34,126.195 201.34,131.861 202.5,137.5C 189.989,137.829 177.655,137.495 165.5,136.5 Z"/></g>
<g><path style="opacity:1" fill="#f5d519" d="M 318.5,147.5 C 318.5,147.833 318.5,148.167 318.5,148.5C 318.5,152.5 318.5,156.5 318.5,160.5C 318.5,160.833 318.5,161.167 318.5,161.5C 309.167,161.5 299.833,161.5 290.5,161.5C 290.784,159.585 290.451,157.919 289.5,156.5C 289.5,156.167 289.5,155.833 289.5,155.5C 289.5,153.833 289.5,152.167 289.5,150.5C 289.5,149.167 289.5,147.833 289.5,146.5C 290.301,144.958 290.634,143.292 290.5,141.5C 290.984,137.768 291.651,134.101 292.5,130.5C 292.425,127.794 292.092,125.127 291.5,122.5C 299.833,122.5 308.167,122.5 316.5,122.5C 315.983,130.862 316.649,139.195 318.5,147.5 Z"/></g>
<g><path style="opacity:1" fill="#cba428" d="M 246.5,137.5 C 244.613,135.211 243.279,132.545 242.5,129.5C 244.01,128.272 245.51,128.272 247,129.5C 247.801,132.367 247.634,135.034 246.5,137.5 Z"/></g>
<g><path style="opacity:1" fill="#83b9db" d="M 43.5,143.5 C 42.1667,143.5 40.8333,143.5 39.5,143.5C 39.5,145.833 39.5,148.167 39.5,150.5C 39.1667,150.5 38.8333,150.5 38.5,150.5C 38.573,148.973 37.9063,147.973 36.5,147.5C 36.0423,144.606 36.709,142.106 38.5,140C 37.9558,139.283 37.2891,138.783 36.5,138.5C 36.5,137.833 36.5,137.167 36.5,136.5C 36.33,135.178 36.6634,134.011 37.5,133C 40.146,132.503 42.8127,132.336 45.5,132.5C 46.0803,136.649 45.4136,140.316 43.5,143.5 Z"/></g>
<g><path style="opacity:1" fill="#f9d612" d="M 390.5,123.5 C 391.167,123.5 391.5,123.833 391.5,124.5C 386.456,124.173 381.456,124.506 376.5,125.5C 375.37,126.622 374.703,127.956 374.5,129.5C 373.511,134.975 373.178,140.642 373.5,146.5C 371.664,148.588 369.331,149.921 366.5,150.5C 355.675,148.27 344.675,146.603 333.5,145.5C 331.77,144.621 330.437,143.288 329.5,141.5C 330.269,138.885 330.603,136.219 330.5,133.5C 332.604,133.799 334.604,133.466 336.5,132.5C 334.025,132.036 332.025,131.036 330.5,129.5C 342.851,129.832 355.185,129.499 367.5,128.5C 368.845,125.324 371.012,122.991 374,121.5C 379.455,122.589 384.955,123.256 390.5,123.5 Z"/></g>
<g><path style="opacity:1" fill="#a28b1c" d="M 377.5,127.5 C 378.167,135.5 378.833,143.5 379.5,151.5C 378.545,153.746 377.878,156.079 377.5,158.5C 376.833,158.5 376.167,158.5 375.5,158.5C 376.655,154.163 375.988,150.163 373.5,146.5C 373.178,140.642 373.511,134.975 374.5,129.5C 375.037,136.859 375.87,144.193 377,151.5C 377.5,143.507 377.666,135.507 377.5,127.5 Z"/></g>
<g><path style="opacity:1" fill="#c2a416" d="M 268.5,100.5 C 269.167,100.5 269.5,100.833 269.5,101.5C 269.778,103.695 269.778,105.861 269.5,108C 272.748,108.671 273.081,108.171 270.5,106.5C 271.127,105.583 271.461,104.583 271.5,103.5C 272.167,103.833 272.833,104.167 273.5,104.5C 276.5,104.5 279.5,104.5 282.5,104.5C 282.5,107.833 282.5,111.167 282.5,114.5C 284.924,114.192 287.257,114.526 289.5,115.5C 288.833,116.167 288.167,116.833 287.5,117.5C 289.027,121.989 290.694,126.322 292.5,130.5C 291.651,134.101 290.984,137.768 290.5,141.5C 285.429,139.406 283.763,140.906 285.5,146C 286.793,146.49 288.127,146.657 289.5,146.5C 289.5,147.833 289.5,149.167 289.5,150.5C 286.5,150.5 283.5,150.5 280.5,150.5C 280.5,152.167 280.5,153.833 280.5,155.5C 283.5,155.5 286.5,155.5 289.5,155.5C 289.5,155.833 289.5,156.167 289.5,156.5C 277.5,156.5 265.5,156.5 253.5,156.5C 253.5,156.167 253.5,155.833 253.5,155.5C 255.833,155.5 258.167,155.5 260.5,155.5C 260.5,153.833 260.5,152.167 260.5,150.5C 258.167,150.5 255.833,150.5 253.5,150.5C 253.5,149.167 253.5,147.833 253.5,146.5C 251.167,146.5 248.833,146.5 246.5,146.5C 246.5,145.167 246.5,143.833 246.5,142.5C 248.595,135.133 250.595,127.466 252.5,119.5C 251.57,117.895 251.57,116.395 252.5,115C 254.473,114.505 256.473,114.338 258.5,114.5C 258.5,111.167 258.5,107.833 258.5,104.5C 261.833,104.5 265.167,104.5 268.5,104.5C 268.5,103.167 268.5,101.833 268.5,100.5 Z"/></g>
<g><path style="opacity:1" fill="#0a0e14" d="M 255.5,120.5 C 265.5,120.5 275.5,120.5 285.5,120.5C 286.518,125.904 287.851,131.238 289.5,136.5C 277.185,137.499 264.851,137.832 252.5,137.5C 253.713,131.863 254.713,126.196 255.5,120.5 Z"/></g>
<g><path style="opacity:1" fill="#14242c" d="M 295.5,126.5 C 301.167,126.5 306.833,126.5 312.5,126.5C 312.674,133.224 313.341,139.891 314.5,146.5C 307.833,146.5 301.167,146.5 294.5,146.5C 294.833,139.833 295.167,133.167 295.5,126.5 Z"/></g>
<g><path style="opacity:1" fill="#73add3" d="M 404.5,133.5 C 407.187,133.336 409.854,133.503 412.5,134C 413.885,137.039 414.885,140.206 415.5,143.5C 414.85,145.435 414.517,147.435 414.5,149.5C 413.508,149.672 412.842,149.338 412.5,148.5C 412.5,146.833 412.5,145.167 412.5,143.5C 409.833,143.5 407.167,143.5 404.5,143.5C 404.5,140.167 404.5,136.833 404.5,133.5 Z"/></g>
<g><path style="opacity:1" fill="#84822e" d="M 57.5,135.5 C 58.1667,135.833 58.8333,136.167 59.5,136.5C 58.4597,140.042 57.1263,143.375 55.5,146.5C 54.5,147.167 53.5,147.833 52.5,148.5C 51.8333,148.5 51.1667,148.5 50.5,148.5C 53.0954,146.986 54.4287,144.652 54.5,141.5C 51.6146,141.806 48.9479,141.473 46.5,140.5C 49.7766,140.216 52.9433,140.549 56,141.5C 57.128,139.655 57.628,137.655 57.5,135.5 Z"/></g>
<g><path style="opacity:1" fill="#f9c90f" d="M 91.5,131.5 C 91.1961,132.15 90.8627,132.817 90.5,133.5C 92.0464,139.367 94.0464,145.034 96.5,150.5C 96.5,150.833 96.5,151.167 96.5,151.5C 92.5191,152.021 88.5191,152.354 84.5,152.5C 83.1779,147.849 81.8446,143.182 80.5,138.5C 84.0256,135.906 87.6923,133.573 91.5,131.5 Z"/></g>
<g><path style="opacity:1" fill="#aba039" d="M 404.5,133.5 C 407.287,132.523 410.287,132.19 413.5,132.5C 414.688,134.722 415.688,137.055 416.5,139.5C 420.041,140.2 423.541,140.867 427,141.5C 427.497,143.81 427.663,146.143 427.5,148.5C 426.5,148.5 425.5,148.5 424.5,148.5C 425.091,147.849 425.757,147.182 426.5,146.5C 424.955,145.548 423.288,145.215 421.5,145.5C 421.5,144.167 421.5,142.833 421.5,141.5C 419.219,141.077 417.552,141.744 416.5,143.5C 416.167,143.5 415.833,143.5 415.5,143.5C 414.885,140.206 413.885,137.039 412.5,134C 409.854,133.503 407.187,133.336 404.5,133.5 Z"/></g>
<g><path style="opacity:1" fill="#13232e" d="M 59.5,136.5 C 62.5,136.5 65.5,136.5 68.5,136.5C 68.5,140.167 68.5,143.833 68.5,147.5C 63.9677,147.818 59.6344,147.485 55.5,146.5C 57.1263,143.375 58.4597,140.042 59.5,136.5 Z"/></g>
<g><path style="opacity:1" fill="#445b6e" d="M 36.5,138.5 C 37.2891,138.783 37.9558,139.283 38.5,140C 36.709,142.106 36.0423,144.606 36.5,147.5C 35.0532,146.866 34.3866,145.699 34.5,144C 34.7006,141.889 35.3673,140.055 36.5,138.5 Z"/></g>
<g><path style="opacity:1" fill="#d2d1d1" d="M 253.5,146.5 C 251.86,145.21 251.36,143.543 252,141.5C 256.333,139.5 258,140.833 257,145.5C 255.989,146.337 254.822,146.67 253.5,146.5 Z"/></g>
<g><path style="opacity:1" fill="#232525" d="M 43.5,143.5 C 42.1261,145.858 40.7928,148.192 39.5,150.5C 39.5,148.167 39.5,145.833 39.5,143.5C 40.8333,143.5 42.1667,143.5 43.5,143.5 Z"/></g>
<g><path style="opacity:1" fill="#cdaf1a" d="M 46.5,140.5 C 48.9479,141.473 51.6146,141.806 54.5,141.5C 54.4287,144.652 53.0954,146.986 50.5,148.5C 48.174,150.444 45.5073,151.778 42.5,152.5C 40.6672,152.415 39.3339,151.748 38.5,150.5C 38.8333,150.5 39.1667,150.5 39.5,150.5C 40.7928,148.192 42.1261,145.858 43.5,143.5C 45.4136,140.316 46.0803,136.649 45.5,132.5C 42.8127,132.336 40.146,132.503 37.5,133C 36.6634,134.011 36.33,135.178 36.5,136.5C 35.6618,136.158 35.3284,135.492 35.5,134.5C 35.2786,133.265 34.6119,132.265 33.5,131.5C 38.1667,130.167 42.8333,130.167 47.5,131.5C 46.5934,134.421 46.2601,137.421 46.5,140.5 Z"/></g>
<g><path style="opacity:1" fill="#3a3a25" d="M 391.5,124.5 C 391.167,125.167 390.833,125.833 390.5,126.5C 385.968,126.182 381.634,126.515 377.5,127.5C 377.666,135.507 377.5,143.507 377,151.5C 375.87,144.193 375.037,136.859 374.5,129.5C 374.703,127.956 375.37,126.622 376.5,125.5C 381.456,124.506 386.456,124.173 391.5,124.5 Z"/></g>
<g><path style="opacity:1" fill="#122028" d="M 115.5,141.5 C 115.5,144.5 115.5,147.5 115.5,150.5C 110.305,150.821 105.305,150.487 100.5,149.5C 102.915,148.695 105.249,147.695 107.5,146.5C 110.149,144.86 112.816,143.193 115.5,141.5 Z"/></g>
<g><path style="opacity:1" fill="#d4d1d1" d="M 290.5,141.5 C 290.634,143.292 290.301,144.958 289.5,146.5C 288.127,146.657 286.793,146.49 285.5,146C 283.763,140.906 285.429,139.406 290.5,141.5 Z"/></g>
<g><path style="opacity:1" fill="#a78614" d="M 329.5,146.5 C 330.568,145.566 331.901,145.232 333.5,145.5C 344.675,146.603 355.675,148.27 366.5,150.5C 361.4,151.392 356.233,151.059 351,149.5C 349.883,151.124 348.383,152.124 346.5,152.5C 344.666,151.246 342.666,150.579 340.5,150.5C 340.5,149.5 340.5,148.5 340.5,147.5C 336.881,146.756 333.215,146.423 329.5,146.5 Z"/></g>
<g><path style="opacity:1" fill="#caaf19" d="M 401.5,132.5 C 406.738,131.215 410.738,131.215 413.5,132.5C 410.287,132.19 407.287,132.523 404.5,133.5C 404.5,136.833 404.5,140.167 404.5,143.5C 407.799,144.15 410.465,145.816 412.5,148.5C 412.842,149.338 413.508,149.672 414.5,149.5C 415.675,149.719 416.675,149.386 417.5,148.5C 416.691,146.929 416.357,145.262 416.5,143.5C 417.552,141.744 419.219,141.077 421.5,141.5C 421.5,142.833 421.5,144.167 421.5,145.5C 423.288,145.215 424.955,145.548 426.5,146.5C 425.757,147.182 425.091,147.849 424.5,148.5C 423.733,149.172 423.066,150.005 422.5,151C 418.789,151.825 415.122,151.659 411.5,150.5C 410.14,146.817 407.474,145.15 403.5,145.5C 404.097,140.706 403.43,136.373 401.5,132.5 Z"/></g>
<g><path style="opacity:1" fill="#100f0f" d="M 404.5,143.5 C 407.167,143.5 409.833,143.5 412.5,143.5C 412.5,145.167 412.5,146.833 412.5,148.5C 410.465,145.816 407.799,144.15 404.5,143.5 Z"/></g>
<g><path style="opacity:1" fill="#424b22" d="M 59.5,136.5 C 62.6248,135.521 65.9581,135.187 69.5,135.5C 69.8168,139.702 69.4834,143.702 68.5,147.5C 68.5,143.833 68.5,140.167 68.5,136.5C 65.5,136.5 62.5,136.5 59.5,136.5 Z"/></g>
<g><path style="opacity:1" fill="#f6cc13" d="M 377.5,127.5 C 381.634,126.515 385.968,126.182 390.5,126.5C 391.239,126.369 391.906,126.536 392.5,127C 391.167,127.333 389.833,127.667 388.5,128C 390.052,130.943 391.719,133.777 393.5,136.5C 394.85,140.095 397.517,141.428 401.5,140.5C 401.833,143.167 402.167,145.833 402.5,148.5C 402.367,151.587 403.7,153.587 406.5,154.5C 406.5,155.5 406.5,156.5 406.5,157.5C 404.052,158.473 401.385,158.806 398.5,158.5C 398.196,155.421 397.196,152.587 395.5,150C 390.5,149.333 385.5,149.333 380.5,150C 379.944,150.383 379.611,150.883 379.5,151.5C 378.833,143.5 378.167,135.5 377.5,127.5 Z"/></g>
<g><path style="opacity:1" fill="#14222c" d="M 388.5,132.5 C 389.693,135.052 391.027,137.552 392.5,140C 390.866,140.494 389.199,140.66 387.5,140.5C 387.194,137.615 387.527,134.948 388.5,132.5 Z"/></g>
<g><path style="opacity:1" fill="#4f4f27" d="M 388.5,132.5 C 387.527,134.948 387.194,137.615 387.5,140.5C 386.833,140.5 386.167,140.5 385.5,140.5C 385.665,137.15 385.498,133.817 385,130.5C 384.355,131.646 383.522,132.646 382.5,133.5C 383.326,134.451 383.492,135.451 383,136.5C 381.62,134.46 381.12,132.46 381.5,130.5C 380.513,133.768 380.18,137.102 380.5,140.5C 379.518,137.038 379.185,133.371 379.5,129.5C 381.857,129.337 384.19,129.503 386.5,130C 387.381,130.708 388.047,131.542 388.5,132.5 Z"/></g>
<g><path style="opacity:1" fill="#101f2f" d="M 385.5,140.5 C 383.833,140.5 382.167,140.5 380.5,140.5C 380.18,137.102 380.513,133.768 381.5,130.5C 381.12,132.46 381.62,134.46 383,136.5C 383.492,135.451 383.326,134.451 382.5,133.5C 383.522,132.646 384.355,131.646 385,130.5C 385.498,133.817 385.665,137.15 385.5,140.5 Z"/></g>
<g><path style="opacity:1" fill="#af9c38" d="M 29.5,132.5 C 31.1276,136.762 32.1276,141.429 32.5,146.5C 33.3213,142.327 34.3213,138.327 35.5,134.5C 35.3284,135.492 35.6618,136.158 36.5,136.5C 36.5,137.167 36.5,137.833 36.5,138.5C 35.3673,140.055 34.7006,141.889 34.5,144C 34.3866,145.699 35.0532,146.866 36.5,147.5C 37.9063,147.973 38.573,148.973 38.5,150.5C 34.2224,147.351 30.7224,148.018 28,152.5C 27.9962,150.632 28.4962,148.798 29.5,147C 29.4301,146.235 29.0967,145.735 28.5,145.5C 28.5,142.5 28.5,139.5 28.5,136.5C 28.2322,134.901 28.5655,133.568 29.5,132.5 Z"/></g>
<g><path style="opacity:1" fill="#c6a71e" d="M 80.5,138.5 C 79.2921,139.234 77.9587,139.567 76.5,139.5C 74.9907,138.141 74.324,138.641 74.5,141C 74.5275,143.363 75.6941,144.863 78,145.5C 78.4986,149.152 78.6653,152.818 78.5,156.5C 76.5,156.5 74.5,156.5 72.5,156.5C 72.176,149.646 72.5093,142.979 73.5,136.5C 77.1648,133.328 79.4981,133.995 80.5,138.5 Z"/></g>
<g><path style="opacity:1" fill="#4a3d0b" d="M 260.5,146.5 C 267.532,146.17 274.532,146.503 281.5,147.5C 278,147.833 274.5,148.167 271,148.5C 267.098,148.488 263.598,147.821 260.5,146.5 Z"/></g>
<g><path style="opacity:1" fill="#babd86" d="M 324.5,144.5 C 325.434,145.568 325.768,146.901 325.5,148.5C 323.167,148.5 320.833,148.5 318.5,148.5C 318.5,148.167 318.5,147.833 318.5,147.5C 320.5,147.5 322.5,147.5 324.5,147.5C 324.5,146.5 324.5,145.5 324.5,144.5 Z"/></g>
<g><path style="opacity:1" fill="#96b7b5" d="M 329.5,146.5 C 333.215,146.423 336.881,146.756 340.5,147.5C 340.5,148.5 340.5,149.5 340.5,150.5C 339.833,150.833 339.167,151.167 338.5,151.5C 338.737,150.209 338.404,149.209 337.5,148.5C 334.302,149.036 331.635,148.369 329.5,146.5 Z"/></g>
<g><path style="opacity:1" fill="#161619" d="M 415.5,143.5 C 415.833,143.5 416.167,143.5 416.5,143.5C 416.357,145.262 416.691,146.929 417.5,148.5C 416.675,149.386 415.675,149.719 414.5,149.5C 414.517,147.435 414.85,145.435 415.5,143.5 Z"/></g>
<g><path style="opacity:1" fill="#202a29" d="M 76.5,139.5 C 78.6308,140.659 79.9641,142.492 80.5,145C 79.5399,148.73 79.2065,152.563 79.5,156.5C 79.1667,156.5 78.8333,156.5 78.5,156.5C 78.6653,152.818 78.4986,149.152 78,145.5C 75.6941,144.863 74.5275,143.363 74.5,141C 74.324,138.641 74.9907,138.141 76.5,139.5 Z"/></g>
<g><path style="opacity:1" fill="#8c701a" d="M 80.5,138.5 C 81.8446,143.182 83.1779,147.849 84.5,152.5C 82.7973,151.34 82.1307,152.007 82.5,154.5C 86.5,154.5 90.5,154.5 94.5,154.5C 94.3893,155.117 94.056,155.617 93.5,156C 89.5138,156.499 85.5138,156.666 81.5,156.5C 81.6646,153.482 81.498,150.482 81,147.5C 80.8195,150.695 80.3195,153.695 79.5,156.5C 79.2065,152.563 79.5399,148.73 80.5,145C 79.9641,142.492 78.6308,140.659 76.5,139.5C 77.9587,139.567 79.2921,139.234 80.5,138.5 Z"/></g>
<g><path style="opacity:1" fill="#81731c" d="M 115.5,141.5 C 116.479,144.625 116.813,147.958 116.5,151.5C 110.5,151.5 104.5,151.5 98.5,151.5C 97.8333,151.5 97.1667,151.5 96.5,151.5C 96.5,151.167 96.5,150.833 96.5,150.5C 97.9587,150.567 99.2921,150.234 100.5,149.5C 105.305,150.487 110.305,150.821 115.5,150.5C 115.5,147.5 115.5,144.5 115.5,141.5 Z"/></g>
<g><path style="opacity:1" fill="#f0c016" d="M 130.5,114.5 C 130.885,125.46 130.885,136.46 130.5,147.5C 132.95,147.702 135.283,147.369 137.5,146.5C 136.617,151.103 136.283,155.77 136.5,160.5C 130.167,160.5 123.833,160.5 117.5,160.5C 117.768,158.901 117.434,157.568 116.5,156.5C 109.833,155.833 103.167,155.167 96.5,154.5C 97.4013,153.71 98.0679,152.71 98.5,151.5C 104.5,151.5 110.5,151.5 116.5,151.5C 116.813,147.958 116.479,144.625 115.5,141.5C 112.816,143.193 110.149,144.86 107.5,146.5C 106.252,140.664 104.419,134.997 102,129.5C 101.329,128.748 100.496,128.414 99.5,128.5C 103.943,127.199 108.609,126.532 113.5,126.5C 114.031,129.237 114.864,131.904 116,134.5C 116.671,135.252 117.504,135.586 118.5,135.5C 118.196,136.15 117.863,136.817 117.5,137.5C 119.312,140.899 119.979,144.566 119.5,148.5C 121.735,148.795 123.735,148.461 125.5,147.5C 125.5,145.833 125.5,144.167 125.5,142.5C 125.821,136.974 125.488,131.64 124.5,126.5C 124.646,122.481 124.979,118.481 125.5,114.5C 126.232,113.192 127.066,111.858 128,110.5C 128.934,111.858 129.768,113.192 130.5,114.5 Z"/></g>
<g><path style="opacity:1" fill="#79afd6" d="M 125.5,142.5 C 125.5,144.167 125.5,145.833 125.5,147.5C 123.833,147.5 122.167,147.5 120.5,147.5C 120.665,143.818 120.499,140.152 120,136.5C 119.617,135.944 119.117,135.611 118.5,135.5C 118.5,135.167 118.5,134.833 118.5,134.5C 119.23,132.955 120.563,132.122 122.5,132C 118.774,130.957 119.107,130.457 123.5,130.5C 124.383,132.586 125.05,136.586 125.5,142.5 Z"/></g>
<g><path style="opacity:1" fill="#a5a96e" d="M 118.5,135.5 C 119.117,135.611 119.617,135.944 120,136.5C 120.499,140.152 120.665,143.818 120.5,147.5C 122.167,147.5 123.833,147.5 125.5,147.5C 123.735,148.461 121.735,148.795 119.5,148.5C 119.979,144.566 119.312,140.899 117.5,137.5C 117.863,136.817 118.196,136.15 118.5,135.5 Z"/></g>
<g><path style="opacity:1" fill="#778b93" d="M 124.5,126.5 C 125.488,131.64 125.821,136.974 125.5,142.5C 125.05,136.586 124.383,132.586 123.5,130.5C 119.107,130.457 118.774,130.957 122.5,132C 120.563,132.122 119.23,132.955 118.5,134.5C 116.935,132.491 115.935,130.157 115.5,127.5C 118.391,126.597 121.391,126.264 124.5,126.5 Z"/></g>
<g><path style="opacity:1" fill="#9c540e" d="M 113.5,126.5 C 114.167,126.833 114.833,127.167 115.5,127.5C 115.935,130.157 116.935,132.491 118.5,134.5C 118.5,134.833 118.5,135.167 118.5,135.5C 117.504,135.586 116.671,135.252 116,134.5C 114.864,131.904 114.031,129.237 113.5,126.5 Z"/></g>
<g><path style="opacity:1" fill="#5facda" d="M 26.5,148.5 C 26.5,150.5 26.5,152.5 26.5,154.5C 23.4781,154.804 20.4781,155.304 17.5,156C 22.8632,156.264 28.1965,156.764 33.5,157.5C 35.3969,157.272 36.7303,156.272 37.5,154.5C 39.1667,154.167 40.8333,153.833 42.5,153.5C 46.1454,154.207 49.4787,155.541 52.5,157.5C 52.5,158.5 52.5,159.5 52.5,160.5C 54.2789,162.344 56.6122,163.01 59.5,162.5C 59.0072,166.338 60.6738,168.338 64.5,168.5C 68.3407,168.261 70.3407,166.261 70.5,162.5C 77.1667,163.833 83.8333,163.833 90.5,162.5C 91.3478,163.625 92.3478,163.625 93.5,162.5C 95.0519,164.035 96.3852,165.869 97.5,168C 102.166,169.497 105.5,167.997 107.5,163.5C 108.941,164.865 110.274,166.365 111.5,168C 112.448,168.483 113.448,168.649 114.5,168.5C 114.5,169.833 114.5,171.167 114.5,172.5C 115.833,172.5 117.167,172.5 118.5,172.5C 118.5,175.167 118.5,177.833 118.5,180.5C 121.5,180.5 124.5,180.5 127.5,180.5C 127.5,177.833 127.5,175.167 127.5,172.5C 136.833,169.833 146.167,169.833 155.5,172.5C 155.5,175.167 155.5,177.833 155.5,180.5C 158.5,180.5 161.5,180.5 164.5,180.5C 164.5,177.833 164.5,175.167 164.5,172.5C 165.833,172.5 167.167,172.5 168.5,172.5C 168.5,170.833 168.5,169.167 168.5,167.5C 169.5,167.5 170.5,167.5 171.5,167.5C 171.5,165.5 171.5,163.5 171.5,161.5C 179.833,161.5 188.167,161.5 196.5,161.5C 195.068,168.091 194.068,174.757 193.5,181.5C 192.343,184.273 191.676,187.273 191.5,190.5C 192.5,190.5 193.5,190.5 194.5,190.5C 194.5,188.5 194.5,186.5 194.5,184.5C 195.978,184.238 197.311,184.571 198.5,185.5C 197.691,187.071 197.357,188.738 197.5,190.5C 198.5,190.5 199.5,190.5 200.5,190.5C 199.887,187.031 201.221,185.031 204.5,184.5C 204.5,186.5 204.5,188.5 204.5,190.5C 205.5,190.5 206.5,190.5 207.5,190.5C 207.5,188.5 207.5,186.5 207.5,184.5C 208.5,184.5 209.5,184.5 210.5,184.5C 210.5,186.5 210.5,188.5 210.5,190.5C 211.5,190.5 212.5,190.5 213.5,190.5C 213.5,188.5 213.5,186.5 213.5,184.5C 214.5,184.5 215.5,184.5 216.5,184.5C 216.5,186.5 216.5,188.5 216.5,190.5C 217.5,190.5 218.5,190.5 219.5,190.5C 219.5,188.5 219.5,186.5 219.5,184.5C 220.5,184.5 221.5,184.5 222.5,184.5C 222.205,186.735 222.539,188.735 223.5,190.5C 224.167,190.5 224.833,190.5 225.5,190.5C 226.461,188.735 226.795,186.735 226.5,184.5C 227.5,184.5 228.5,184.5 229.5,184.5C 229.5,186.5 229.5,188.5 229.5,190.5C 230.5,190.5 231.5,190.5 232.5,190.5C 232.5,188.5 232.5,186.5 232.5,184.5C 233.5,184.5 234.5,184.5 235.5,184.5C 235.5,186.5 235.5,188.5 235.5,190.5C 236.5,190.5 237.5,190.5 238.5,190.5C 238.5,188.5 238.5,186.5 238.5,184.5C 239.5,184.5 240.5,184.5 241.5,184.5C 241.5,186.5 241.5,188.5 241.5,190.5C 242.5,190.5 243.5,190.5 244.5,190.5C 244.5,188.5 244.5,186.5 244.5,184.5C 245.675,184.281 246.675,184.614 247.5,185.5C 249.381,192.014 250.381,191.681 250.5,184.5C 253.779,185.031 255.113,187.031 254.5,190.5C 255.5,190.5 256.5,190.5 257.5,190.5C 257.5,188.5 257.5,186.5 257.5,184.5C 258.5,184.5 259.5,184.5 260.5,184.5C 260.247,186.827 260.914,188.827 262.5,190.5C 262.833,189.5 263.167,188.5 263.5,187.5C 261.948,178.854 260.614,170.187 259.5,161.5C 267.5,161.5 275.5,161.5 283.5,161.5C 283.5,163.5 283.5,165.5 283.5,167.5C 284.5,167.5 285.5,167.5 286.5,167.5C 286.5,169.167 286.5,170.833 286.5,172.5C 287.833,172.5 289.167,172.5 290.5,172.5C 290.5,175.167 290.5,177.833 290.5,180.5C 293.5,180.5 296.5,180.5 299.5,180.5C 299.5,177.833 299.5,175.167 299.5,172.5C 308.833,169.833 318.167,169.833 327.5,172.5C 327.5,175.167 327.5,177.833 327.5,180.5C 330.5,180.5 333.5,180.5 336.5,180.5C 336.5,177.833 336.5,175.167 336.5,172.5C 337.833,172.5 339.167,172.5 340.5,172.5C 340.5,171.167 340.5,169.833 340.5,168.5C 346.963,168.367 349.963,165.034 349.5,158.5C 358.205,159.458 366.871,159.458 375.5,158.5C 376.167,158.5 376.833,158.5 377.5,158.5C 379.609,160.89 381.276,163.723 382.5,167C 391.427,170.438 396.76,167.604 398.5,158.5C 401.385,158.806 404.052,158.473 406.5,157.5C 408.283,156.886 409.616,155.72 410.5,154C 415.85,152.661 420.517,153.661 424.5,157C 431.054,156.957 432.721,154.123 429.5,148.5C 436.167,148.5 442.833,148.5 449.5,148.5C 449.5,167.5 449.5,186.5 449.5,205.5C 299.5,205.5 149.5,205.5 -0.5,205.5C -0.5,186.833 -0.5,168.167 -0.5,149.5C 8.58387,149.804 17.5839,149.471 26.5,148.5 Z"/></g>
<g><path style="opacity:1" fill="#f69021" d="M 291.5,148.5 C 299.86,148.169 308.193,148.502 316.5,149.5C 312.333,149.833 308.167,150.167 304,150.5C 299.443,150.491 295.276,149.825 291.5,148.5 Z"/></g>
<g><path style="opacity:1" fill="#ca5021" d="M 253.5,150.5 C 255.833,150.5 258.167,150.5 260.5,150.5C 260.5,152.167 260.5,153.833 260.5,155.5C 258.167,155.5 255.833,155.5 253.5,155.5C 253.5,153.833 253.5,152.167 253.5,150.5 Z"/></g>
<g><path style="opacity:1" fill="#f0c014" d="M 329.5,114.5 C 330.164,119.473 330.497,124.473 330.5,129.5C 332.025,131.036 334.025,132.036 336.5,132.5C 334.604,133.466 332.604,133.799 330.5,133.5C 330.603,136.219 330.269,138.885 329.5,141.5C 330.437,143.288 331.77,144.621 333.5,145.5C 331.901,145.232 330.568,145.566 329.5,146.5C 331.635,148.369 334.302,149.036 337.5,148.5C 335.735,149.461 333.735,149.795 331.5,149.5C 331.5,152.167 331.5,154.833 331.5,157.5C 336.228,157.594 339.895,156.927 342.5,155.5C 345.254,157.053 346.087,159.386 345,162.5C 343.89,164.037 342.39,164.703 340.5,164.5C 340.5,165.833 340.5,167.167 340.5,168.5C 340.06,166.156 339.06,164.156 337.5,162.5C 336.711,162.217 336.044,161.717 335.5,161C 329.843,160.501 324.176,160.334 318.5,160.5C 318.5,156.5 318.5,152.5 318.5,148.5C 320.833,148.5 323.167,148.5 325.5,148.5C 325.768,146.901 325.434,145.568 324.5,144.5C 323.167,144.5 321.833,144.5 320.5,144.5C 320.841,141.484 322.007,138.818 324,136.5C 323.498,129.151 323.665,121.817 324.5,114.5C 326.384,109.372 328.051,109.372 329.5,114.5 Z"/></g>
<g><path style="opacity:1" fill="#484931" d="M 326.5,125.5 C 327.239,125.369 327.906,125.536 328.5,126C 327.693,131.083 327.193,136.25 327,141.5C 326.501,136.177 326.334,130.844 326.5,125.5 Z"/></g>
<g><path style="opacity:1" fill="#6a5f15" d="M 52.5,150.5 C 51.1667,152.167 51.1667,153.833 52.5,155.5C 47.2521,153.76 47.2521,152.093 52.5,150.5 Z"/></g>
<g><path style="opacity:1" fill="#f5d116" d="M 73.5,136.5 C 72.5093,142.979 72.176,149.646 72.5,156.5C 74.5,156.5 76.5,156.5 78.5,156.5C 76.5,157.167 74.5,157.833 72.5,158.5C 72.6495,159.552 72.4828,160.552 72,161.5C 68.1535,155.475 63.6535,154.975 58.5,160C 56.5273,160.495 54.5273,160.662 52.5,160.5C 52.5,159.5 52.5,158.5 52.5,157.5C 52.5,156.833 52.5,156.167 52.5,155.5C 51.1667,153.833 51.1667,152.167 52.5,150.5C 52.5,149.833 52.5,149.167 52.5,148.5C 53.5,147.833 54.5,147.167 55.5,146.5C 59.6344,147.485 63.9677,147.818 68.5,147.5C 69.4834,143.702 69.8168,139.702 69.5,135.5C 65.9581,135.187 62.6248,135.521 59.5,136.5C 58.8333,136.167 58.1667,135.833 57.5,135.5C 57.3893,134.883 57.056,134.383 56.5,134C 61.8643,133.171 67.1977,133.337 72.5,134.5C 72.8627,135.183 73.1961,135.85 73.5,136.5 Z"/></g>
<g><path style="opacity:1" fill="#f6d413" d="M 139.5,122.5 C 147.5,122.5 155.5,122.5 163.5,122.5C 163.007,124.806 162.674,127.139 162.5,129.5C 162.621,132.105 163.621,134.105 165.5,135.5C 165.5,135.833 165.5,136.167 165.5,136.5C 164.167,139.167 164.167,141.833 165.5,144.5C 165.5,145.167 165.5,145.833 165.5,146.5C 165.5,147.833 165.5,149.167 165.5,150.5C 165.5,152.167 165.5,153.833 165.5,155.5C 168.5,155.5 171.5,155.5 174.5,155.5C 174.5,153.833 174.5,152.167 174.5,150.5C 175.167,152.167 175.833,153.833 176.5,155.5C 182.026,155.821 187.36,155.488 192.5,154.5C 192.938,153.494 193.604,153.494 194.5,154.5C 196.607,155.468 198.941,155.802 201.5,155.5C 201.5,153.833 201.5,152.167 201.5,150.5C 201.5,149.167 201.5,147.833 201.5,146.5C 203.833,146.5 206.167,146.5 208.5,146.5C 208.629,144.784 208.962,143.117 209.5,141.5C 209.567,140.041 209.234,138.708 208.5,137.5C 208.5,134.833 208.5,132.167 208.5,129.5C 209.542,128.209 210.708,128.209 212,129.5C 212.692,128.563 212.525,127.897 211.5,127.5C 212.195,125.15 213.528,124.483 215.5,125.5C 223.5,125.5 231.5,125.5 239.5,125.5C 241.099,124.438 242.766,124.438 244.5,125.5C 243.833,126.833 243.167,128.167 242.5,129.5C 243.279,132.545 244.613,135.211 246.5,137.5C 245.167,139.167 245.167,140.833 246.5,142.5C 246.5,143.833 246.5,145.167 246.5,146.5C 248.833,146.5 251.167,146.5 253.5,146.5C 253.5,147.833 253.5,149.167 253.5,150.5C 253.5,152.167 253.5,153.833 253.5,155.5C 253.5,155.833 253.5,156.167 253.5,156.5C 253.328,157.492 253.662,158.158 254.5,158.5C 255.5,158.5 256.5,158.5 257.5,158.5C 257.737,159.791 257.404,160.791 256.5,161.5C 237.243,160.513 217.909,160.18 198.5,160.5C 197.876,164.861 197.543,169.194 197.5,173.5C 196.388,175.599 195.721,177.933 195.5,180.5C 194.778,180.918 194.278,181.584 194,182.5C 193.601,182.272 193.435,181.938 193.5,181.5C 194.068,174.757 195.068,168.091 196.5,161.5C 196.5,160.5 196.5,159.5 196.5,158.5C 197.833,158.5 199.167,158.5 200.5,158.5C 201.043,158.44 201.376,158.107 201.5,157.5C 189.34,156.175 177.34,156.175 165.5,157.5C 165.5,158.833 165.5,160.167 165.5,161.5C 155.75,161.806 146.084,161.473 136.5,160.5C 136.283,155.77 136.617,151.103 137.5,146.5C 138.365,138.3 139.032,130.3 139.5,122.5 Z"/></g>
<g><path style="opacity:1" fill="#f67e24" d="M 138.5,148.5 C 146.86,148.169 155.193,148.502 163.5,149.5C 159.333,149.833 155.167,150.167 151,150.5C 146.443,150.491 142.276,149.825 138.5,148.5 Z"/></g>
<g><path style="opacity:1" fill="#515120" d="M 215.5,148.5 C 223.528,148.169 231.528,148.502 239.5,149.5C 235.5,149.833 231.5,150.167 227.5,150.5C 223.107,150.491 219.107,149.824 215.5,148.5 Z"/></g>
<g><path style="opacity:1" fill="#483d09" d="M 174.5,146.5 C 181.2,146.17 187.866,146.503 194.5,147.5C 191.167,147.833 187.833,148.167 184.5,148.5C 180.761,148.486 177.428,147.82 174.5,146.5 Z"/></g>
<g><path style="opacity:1" fill="#d3cfcb" d="M 201.5,146.5 C 197.65,146.299 196.65,144.466 198.5,141C 200.441,140.257 202.274,140.424 204,141.5C 204.706,143.955 203.873,145.622 201.5,146.5 Z"/></g>
<g><path style="opacity:1" fill="#d2d1d7" d="M 165.5,146.5 C 165.5,145.833 165.5,145.167 165.5,144.5C 165.5,143.167 165.5,141.833 165.5,140.5C 166.873,140.343 168.207,140.51 169.5,141C 171.492,145.152 170.159,146.985 165.5,146.5 Z"/></g>
<g><path style="opacity:1" fill="#69b0e7" d="M 208.5,137.5 C 209.234,138.708 209.567,140.041 209.5,141.5C 208.883,141.611 208.383,141.944 208,142.5C 207.22,140.613 207.387,138.946 208.5,137.5 Z"/></g>
<g><path style="opacity:1" fill="#1b292d" d="M 214.5,128.5 C 223.173,128.334 231.84,128.5 240.5,129C 241.706,134.031 243.04,139.031 244.5,144C 233.505,144.5 222.505,144.667 211.5,144.5C 212.19,139.081 213.19,133.747 214.5,128.5 Z"/></g>
<g><path style="opacity:1" fill="#16262d" d="M 142.5,126.5 C 148.167,126.5 153.833,126.5 159.5,126.5C 160.073,133.177 160.74,139.843 161.5,146.5C 154.833,146.5 148.167,146.5 141.5,146.5C 141.954,139.841 142.287,133.174 142.5,126.5 Z"/></g>
<g><path style="opacity:1" fill="#c84e21" d="M 165.5,150.5 C 168.5,150.5 171.5,150.5 174.5,150.5C 174.5,152.167 174.5,153.833 174.5,155.5C 171.5,155.5 168.5,155.5 165.5,155.5C 165.5,153.833 165.5,152.167 165.5,150.5 Z"/></g>
<g><path style="opacity:1" fill="#fdfaee" d="M 243.5,150.5 C 248.835,150.005 251.335,152.338 251,157.5C 248.263,158.61 245.429,158.777 242.5,158C 241.083,155.257 241.416,152.757 243.5,150.5 Z"/></g>
<g><path style="opacity:1" fill="#c84f22" d="M 289.5,150.5 C 289.5,152.167 289.5,153.833 289.5,155.5C 286.5,155.5 283.5,155.5 280.5,155.5C 280.5,153.833 280.5,152.167 280.5,150.5C 283.5,150.5 286.5,150.5 289.5,150.5 Z"/></g>
<g><path style="opacity:1" fill="#0e1c26" d="M 84.5,152.5 C 88.5191,152.354 92.5191,152.021 96.5,151.5C 97.1667,151.5 97.8333,151.5 98.5,151.5C 98.0679,152.71 97.4013,153.71 96.5,154.5C 95.8333,154.5 95.1667,154.5 94.5,154.5C 90.5,154.5 86.5,154.5 82.5,154.5C 82.1307,152.007 82.7973,151.34 84.5,152.5 Z"/></g>
<g><path style="opacity:1" fill="#9d841c" d="M 118.5,149.5 C 120.167,149.5 121.833,149.5 123.5,149.5C 123.5,152.167 123.5,154.833 123.5,157.5C 121.833,157.5 120.167,157.5 118.5,157.5C 118.5,154.833 118.5,152.167 118.5,149.5 Z"/></g>
<g><path style="opacity:1" fill="#fcf8e2" d="M 139.5,152.5 C 141.912,152.694 142.912,154.027 142.5,156.5C 139.046,156.733 138.046,155.4 139.5,152.5 Z"/></g>
<g><path style="opacity:1" fill="#fdfae7" d="M 160.5,152.5 C 161.995,152.415 162.995,153.081 163.5,154.5C 162.68,156.111 161.346,156.778 159.5,156.5C 159.433,155.041 159.766,153.708 160.5,152.5 Z"/></g>
<g><path style="opacity:1" fill="#c95020" d="M 201.5,150.5 C 201.5,152.167 201.5,153.833 201.5,155.5C 198.941,155.802 196.607,155.468 194.5,154.5C 194.5,153.167 194.5,151.833 194.5,150.5C 196.833,150.5 199.167,150.5 201.5,150.5 Z"/></g>
<g><path style="opacity:1" fill="#948029" d="M 213.5,158.5 C 213.5,156.833 213.5,155.167 213.5,153.5C 221.97,151.628 230.637,150.961 239.5,151.5C 239.5,152.5 239.5,153.5 239.5,154.5C 211.532,154.502 211.532,155.169 239.5,156.5C 230.821,157.254 222.155,157.92 213.5,158.5 Z"/></g>
<g><path style="opacity:1" fill="#726418" d="M 406.5,154.5 C 403.7,153.587 402.367,151.587 402.5,148.5C 406.815,147.257 408.648,148.924 408,153.5C 407.617,154.056 407.117,154.389 406.5,154.5 Z"/></g>
<g><path style="opacity:1" fill="#252a33" d="M 28.5,145.5 C 29.0967,145.735 29.4301,146.235 29.5,147C 28.4962,148.798 27.9962,150.632 28,152.5C 30.7224,148.018 34.2224,147.351 38.5,150.5C 39.3339,151.748 40.6672,152.415 42.5,152.5C 45.5073,151.778 48.174,150.444 50.5,148.5C 51.1667,148.5 51.8333,148.5 52.5,148.5C 52.5,149.167 52.5,149.833 52.5,150.5C 47.2521,152.093 47.2521,153.76 52.5,155.5C 52.5,156.167 52.5,156.833 52.5,157.5C 49.4787,155.541 46.1454,154.207 42.5,153.5C 40.8333,153.833 39.1667,154.167 37.5,154.5C 36.7303,156.272 35.3969,157.272 33.5,157.5C 28.1965,156.764 22.8632,156.264 17.5,156C 20.4781,155.304 23.4781,154.804 26.5,154.5C 26.5,152.5 26.5,150.5 26.5,148.5C 26.2852,146.821 26.9519,145.821 28.5,145.5 Z"/></g>
<g><path style="opacity:1" fill="#6b5f19" d="M 31.5,150.5 C 35.0229,150.188 36.3563,151.521 35.5,154.5C 31.4668,155.747 30.1335,154.414 31.5,150.5 Z"/></g>
<g><path style="opacity:1" fill="#2f260e" d="M 192.5,154.5 C 187.36,155.488 182.026,155.821 176.5,155.5C 178.571,154.191 181.071,153.525 184,153.5C 186.919,153.548 189.752,153.881 192.5,154.5 Z"/></g>
<g><path style="opacity:1" fill="#2f250e" d="M 263.5,153.5 C 268.544,153.173 273.544,153.506 278.5,154.5C 276,154.833 273.5,155.167 271,155.5C 268.071,155.475 265.571,154.809 263.5,153.5 Z"/></g>
<g><path style="opacity:1" fill="#fcf9e7" d="M 292.5,152.5 C 294.912,152.694 295.912,154.027 295.5,156.5C 292.046,156.733 291.046,155.4 292.5,152.5 Z"/></g>
<g><path style="opacity:1" fill="#ae911b" d="M 337.5,148.5 C 338.404,149.209 338.737,150.209 338.5,151.5C 338.5,152.5 338.5,153.5 338.5,154.5C 340.099,154.232 341.432,154.566 342.5,155.5C 339.895,156.927 336.228,157.594 331.5,157.5C 331.5,154.833 331.5,152.167 331.5,149.5C 333.735,149.795 335.735,149.461 337.5,148.5 Z"/></g>
<g><path style="opacity:1" fill="#233038" d="M 373.5,146.5 C 375.988,150.163 376.655,154.163 375.5,158.5C 366.871,159.458 358.205,159.458 349.5,158.5C 349.963,165.034 346.963,168.367 340.5,168.5C 340.5,167.167 340.5,165.833 340.5,164.5C 342.39,164.703 343.89,164.037 345,162.5C 346.087,159.386 345.254,157.053 342.5,155.5C 341.432,154.566 340.099,154.232 338.5,154.5C 338.5,153.5 338.5,152.5 338.5,151.5C 339.167,151.167 339.833,150.833 340.5,150.5C 342.666,150.579 344.666,151.246 346.5,152.5C 348.383,152.124 349.883,151.124 351,149.5C 356.233,151.059 361.4,151.392 366.5,150.5C 369.331,149.921 371.664,148.588 373.5,146.5 Z"/></g>
<g><path style="opacity:1" fill="#22252a" d="M 401.5,132.5 C 403.43,136.373 404.097,140.706 403.5,145.5C 407.474,145.15 410.14,146.817 411.5,150.5C 415.122,151.659 418.789,151.825 422.5,151C 423.066,150.005 423.733,149.172 424.5,148.5C 425.5,148.5 426.5,148.5 427.5,148.5C 428.167,148.5 428.833,148.5 429.5,148.5C 432.721,154.123 431.054,156.957 424.5,157C 420.517,153.661 415.85,152.661 410.5,154C 409.616,155.72 408.283,156.886 406.5,157.5C 406.5,156.5 406.5,155.5 406.5,154.5C 407.117,154.389 407.617,154.056 408,153.5C 408.648,148.924 406.815,147.257 402.5,148.5C 402.167,145.833 401.833,143.167 401.5,140.5C 401.5,137.833 401.5,135.167 401.5,132.5 Z"/></g>
<g><path style="opacity:1" fill="#655a1c" d="M 424.5,150.5 C 428.138,149.737 429.638,151.07 429,154.5C 424.777,155.989 423.277,154.655 424.5,150.5 Z"/></g>
<g><path style="opacity:1" fill="#fcfae8" d="M 313.5,152.5 C 314.995,152.415 315.995,153.081 316.5,154.5C 315.68,156.111 314.346,156.778 312.5,156.5C 312.433,155.041 312.766,153.708 313.5,152.5 Z"/></g>
<g><path style="opacity:1" fill="#595620" d="M 165.5,157.5 C 177.34,156.175 189.34,156.175 201.5,157.5C 201.376,158.107 201.043,158.44 200.5,158.5C 189.012,157.505 177.345,157.172 165.5,157.5 Z"/></g>
<g><path style="opacity:1" fill="#fcfcf3" d="M 213.5,153.5 C 213.5,155.167 213.5,156.833 213.5,158.5C 210.5,158.5 207.5,158.5 204.5,158.5C 203.333,152.504 205.666,150.004 211.5,151C 212.381,151.708 213.047,152.542 213.5,153.5 Z"/></g>
<g><path style="opacity:1" fill="#5b5722" d="M 253.5,156.5 C 265.5,156.5 277.5,156.5 289.5,156.5C 289.5,156.833 289.5,157.167 289.5,157.5C 277.655,157.172 265.988,157.505 254.5,158.5C 253.662,158.158 253.328,157.492 253.5,156.5 Z"/></g>
<g><path style="opacity:1" fill="#f58c1d" d="M 291.5,158.5 C 299.86,158.169 308.193,158.502 316.5,159.5C 312.333,159.833 308.167,160.167 304,160.5C 299.443,160.491 295.276,159.825 291.5,158.5 Z"/></g>
<g><path style="opacity:1" fill="#313a41" d="M 72.5,158.5 C 79.175,158.334 85.8417,158.5 92.5,159C 91.9152,160.302 91.2485,161.469 90.5,162.5C 83.8333,163.833 77.1667,163.833 70.5,162.5C 70.3407,166.261 68.3407,168.261 64.5,168.5C 60.6738,168.338 59.0072,166.338 59.5,162.5C 56.6122,163.01 54.2789,162.344 52.5,160.5C 54.5273,160.662 56.5273,160.495 58.5,160C 63.6535,154.975 68.1535,155.475 72,161.5C 72.4828,160.552 72.6495,159.552 72.5,158.5 Z"/></g>
<g><path style="opacity:1" fill="#f27b23" d="M 139.5,158.5 C 147.528,158.169 155.528,158.502 163.5,159.5C 159.5,159.833 155.5,160.167 151.5,160.5C 147.107,160.491 143.107,159.824 139.5,158.5 Z"/></g>
<g><path style="opacity:1" fill="#1f262b" d="M 339.5,157.5 C 341.912,157.694 342.912,159.027 342.5,161.5C 341.5,161.5 340.5,161.5 339.5,161.5C 339.5,160.167 339.5,158.833 339.5,157.5 Z"/></g>
<g><path style="opacity:1" fill="#bcae22" d="M 94.5,154.5 C 95.1667,154.5 95.8333,154.5 96.5,154.5C 103.167,155.167 109.833,155.833 116.5,156.5C 109.492,156.334 102.492,156.5 95.5,157C 94.1387,158.584 93.472,160.418 93.5,162.5C 92.3478,163.625 91.3478,163.625 90.5,162.5C 91.2485,161.469 91.9152,160.302 92.5,159C 85.8417,158.5 79.175,158.334 72.5,158.5C 74.5,157.833 76.5,157.167 78.5,156.5C 78.8333,156.5 79.1667,156.5 79.5,156.5C 80.3195,153.695 80.8195,150.695 81,147.5C 81.498,150.482 81.6646,153.482 81.5,156.5C 85.5138,156.666 89.5138,156.499 93.5,156C 94.056,155.617 94.3893,155.117 94.5,154.5 Z"/></g>
<g><path style="opacity:1" fill="#181f26" d="M 165.5,157.5 C 177.345,157.172 189.012,157.505 200.5,158.5C 199.167,158.5 197.833,158.5 196.5,158.5C 196.5,159.5 196.5,160.5 196.5,161.5C 188.167,161.5 179.833,161.5 171.5,161.5C 171.5,163.5 171.5,165.5 171.5,167.5C 170.5,167.5 169.5,167.5 168.5,167.5C 168.67,166.178 168.337,165.011 167.5,164C 150.833,164.777 134.166,164.611 117.5,163.5C 117.5,162.5 117.5,161.5 117.5,160.5C 123.833,160.5 130.167,160.5 136.5,160.5C 140.951,161.827 145.784,162.494 151,162.5C 156.012,162.499 160.845,162.166 165.5,161.5C 165.5,160.167 165.5,158.833 165.5,157.5 Z"/></g>
<g><path style="opacity:1" fill="#b4a525" d="M 63.5,159.5 C 67.4735,160.075 68.4735,162.242 66.5,166C 61.3823,165.824 60.3823,163.658 63.5,159.5 Z"/></g>
<g><path style="opacity:1" fill="#99911f" d="M 136.5,160.5 C 146.084,161.473 155.75,161.806 165.5,161.5C 160.845,162.166 156.012,162.499 151,162.5C 145.784,162.494 140.951,161.827 136.5,160.5 Z"/></g>
<g><path style="opacity:1" fill="#9c921c" d="M 289.5,156.5 C 290.451,157.919 290.784,159.585 290.5,161.5C 299.833,161.5 309.167,161.5 318.5,161.5C 309.014,162.494 299.348,162.827 289.5,162.5C 289.5,160.833 289.5,159.167 289.5,157.5C 289.5,157.167 289.5,156.833 289.5,156.5 Z"/></g>
<g><path style="opacity:1" fill="#373d42" d="M 398.5,158.5 C 396.76,167.604 391.427,170.438 382.5,167C 381.276,163.723 379.609,160.89 377.5,158.5C 377.878,156.079 378.545,153.746 379.5,151.5C 379.611,150.883 379.944,150.383 380.5,150C 385.5,149.333 390.5,149.333 395.5,150C 397.196,152.587 398.196,155.421 398.5,158.5 Z"/></g>
<g><path style="opacity:1" fill="#cbb920" d="M 386.5,154.5 C 391.283,154.449 393.45,156.782 393,161.5C 390.294,164.978 387.294,165.311 384,162.5C 382.837,159.029 383.67,156.362 386.5,154.5 Z"/></g>
<g><path style="opacity:1" fill="#19232b" d="M 387.5,157.5 C 389.104,158.287 389.771,159.62 389.5,161.5C 388.5,161.5 387.5,161.5 386.5,161.5C 386.433,160.041 386.766,158.708 387.5,157.5 Z"/></g>
<g><path style="opacity:1" fill="#ad9e26" d="M 116.5,156.5 C 117.434,157.568 117.768,158.901 117.5,160.5C 117.5,161.5 117.5,162.5 117.5,163.5C 115.972,164.802 114.972,166.469 114.5,168.5C 113.339,166.817 112.339,164.984 111.5,163C 112.101,160.363 113.767,159.196 116.5,159.5C 116.5,158.5 116.5,157.5 116.5,156.5 Z"/></g>
<g><path style="opacity:1" fill="#171e25" d="M 254.5,158.5 C 265.988,157.505 277.655,157.172 289.5,157.5C 289.5,159.167 289.5,160.833 289.5,162.5C 299.348,162.827 309.014,162.494 318.5,161.5C 318.5,161.167 318.5,160.833 318.5,160.5C 324.176,160.334 329.843,160.501 335.5,161C 336.044,161.717 336.711,162.217 337.5,162.5C 329.704,163.816 321.704,164.483 313.5,164.5C 304.834,164.071 296.168,163.738 287.5,163.5C 287.768,165.099 287.434,166.432 286.5,167.5C 285.5,167.5 284.5,167.5 283.5,167.5C 283.5,165.5 283.5,163.5 283.5,161.5C 275.5,161.5 267.5,161.5 259.5,161.5C 258.833,160.5 258.167,159.5 257.5,158.5C 256.5,158.5 255.5,158.5 254.5,158.5 Z"/></g>
<g><path style="opacity:1" fill="#31393f" d="M 116.5,156.5 C 116.5,157.5 116.5,158.5 116.5,159.5C 113.767,159.196 112.101,160.363 111.5,163C 112.339,164.984 113.339,166.817 114.5,168.5C 113.448,168.649 112.448,168.483 111.5,168C 110.274,166.365 108.941,164.865 107.5,163.5C 105.5,167.997 102.166,169.497 97.5,168C 96.3852,165.869 95.0519,164.035 93.5,162.5C 93.472,160.418 94.1387,158.584 95.5,157C 102.492,156.5 109.492,156.334 116.5,156.5 Z"/></g>
<g><path style="opacity:1" fill="#ad9f26" d="M 99.5,159.5 C 103.473,160.075 104.473,162.242 102.5,166C 97.3823,165.824 96.3823,163.658 99.5,159.5 Z"/></g>
<g><path style="opacity:1" fill="#fbd004" d="M 256.5,161.5 C 256.389,162.117 256.056,162.617 255.5,163C 256.866,165.997 257.533,169.164 257.5,172.5C 256.033,169.742 255.367,170.075 255.5,173.5C 236.099,172.853 216.932,173.52 198,175.5C 197.536,174.906 197.369,174.239 197.5,173.5C 197.543,169.194 197.876,164.861 198.5,160.5C 217.909,160.18 237.243,160.513 256.5,161.5 Z"/></g>
<g><path style="opacity:1" fill="#f3d518" d="M 117.5,163.5 C 134.166,164.611 150.833,164.777 167.5,164C 168.337,165.011 168.67,166.178 168.5,167.5C 168.5,169.167 168.5,170.833 168.5,172.5C 167.167,172.5 165.833,172.5 164.5,172.5C 161.5,172.5 158.5,172.5 155.5,172.5C 146.167,169.833 136.833,169.833 127.5,172.5C 124.5,172.5 121.5,172.5 118.5,172.5C 117.167,172.5 115.833,172.5 114.5,172.5C 114.5,171.167 114.5,169.833 114.5,168.5C 114.972,166.469 115.972,164.802 117.5,163.5 Z"/></g>
<g><path style="opacity:1" fill="#f4d315" d="M 337.5,162.5 C 339.06,164.156 340.06,166.156 340.5,168.5C 340.5,169.833 340.5,171.167 340.5,172.5C 339.167,172.5 337.833,172.5 336.5,172.5C 333.5,172.5 330.5,172.5 327.5,172.5C 318.167,169.833 308.833,169.833 299.5,172.5C 296.5,172.5 293.5,172.5 290.5,172.5C 289.167,172.5 287.833,172.5 286.5,172.5C 286.5,170.833 286.5,169.167 286.5,167.5C 287.434,166.432 287.768,165.099 287.5,163.5C 296.168,163.738 304.834,164.071 313.5,164.5C 321.704,164.483 329.704,163.816 337.5,162.5 Z"/></g>
<g><path style="opacity:1" fill="#0d1e26" d="M 155.5,172.5 C 158.5,172.5 161.5,172.5 164.5,172.5C 164.5,175.167 164.5,177.833 164.5,180.5C 161.5,180.5 158.5,180.5 155.5,180.5C 155.5,177.833 155.5,175.167 155.5,172.5 Z"/></g>
<g><path style="opacity:1" fill="#0e2028" d="M 118.5,172.5 C 121.5,172.5 124.5,172.5 127.5,172.5C 127.5,175.167 127.5,177.833 127.5,180.5C 124.5,180.5 121.5,180.5 118.5,180.5C 118.5,177.833 118.5,175.167 118.5,172.5 Z"/></g>
<g><path style="opacity:1" fill="#0e2027" d="M 290.5,172.5 C 293.5,172.5 296.5,172.5 299.5,172.5C 299.5,175.167 299.5,177.833 299.5,180.5C 296.5,180.5 293.5,180.5 290.5,180.5C 290.5,177.833 290.5,175.167 290.5,172.5 Z"/></g>
<g><path style="opacity:1" fill="#e8af10" d="M 257.5,172.5 C 258.785,175.589 259.451,178.922 259.5,182.5C 237.807,183.156 216.474,182.489 195.5,180.5C 195.721,177.933 196.388,175.599 197.5,173.5C 197.369,174.239 197.536,174.906 198,175.5C 216.932,173.52 236.099,172.853 255.5,173.5C 255.367,170.075 256.033,169.742 257.5,172.5 Z"/></g>
<g><path style="opacity:1" fill="#0d1e26" d="M 327.5,172.5 C 330.5,172.5 333.5,172.5 336.5,172.5C 336.5,175.167 336.5,177.833 336.5,180.5C 333.5,180.5 330.5,180.5 327.5,180.5C 327.5,177.833 327.5,175.167 327.5,172.5 Z"/></g>
<g><path style="opacity:1" fill="#ead937" d="M 257.5,158.5 C 258.167,159.5 258.833,160.5 259.5,161.5C 260.614,170.187 261.948,178.854 263.5,187.5C 263.167,188.5 262.833,189.5 262.5,190.5C 260.914,188.827 260.247,186.827 260.5,184.5C 259.5,184.5 258.5,184.5 257.5,184.5C 257.5,186.5 257.5,188.5 257.5,190.5C 256.5,190.5 255.5,190.5 254.5,190.5C 255.113,187.031 253.779,185.031 250.5,184.5C 250.381,191.681 249.381,192.014 247.5,185.5C 246.675,184.614 245.675,184.281 244.5,184.5C 244.5,186.5 244.5,188.5 244.5,190.5C 243.5,190.5 242.5,190.5 241.5,190.5C 241.5,188.5 241.5,186.5 241.5,184.5C 240.5,184.5 239.5,184.5 238.5,184.5C 238.5,186.5 238.5,188.5 238.5,190.5C 237.5,190.5 236.5,190.5 235.5,190.5C 235.5,188.5 235.5,186.5 235.5,184.5C 234.5,184.5 233.5,184.5 232.5,184.5C 232.5,186.5 232.5,188.5 232.5,190.5C 231.5,190.5 230.5,190.5 229.5,190.5C 229.5,188.5 229.5,186.5 229.5,184.5C 228.432,183.566 227.099,183.232 225.5,183.5C 225.5,185.833 225.5,188.167 225.5,190.5C 224.833,190.5 224.167,190.5 223.5,190.5C 223.5,188.167 223.5,185.833 223.5,183.5C 221.901,183.232 220.568,183.566 219.5,184.5C 219.5,186.5 219.5,188.5 219.5,190.5C 218.5,190.5 217.5,190.5 216.5,190.5C 216.5,188.5 216.5,186.5 216.5,184.5C 215.5,184.5 214.5,184.5 213.5,184.5C 213.5,186.5 213.5,188.5 213.5,190.5C 212.5,190.5 211.5,190.5 210.5,190.5C 210.5,188.5 210.5,186.5 210.5,184.5C 209.5,184.5 208.5,184.5 207.5,184.5C 207.5,186.5 207.5,188.5 207.5,190.5C 206.5,190.5 205.5,190.5 204.5,190.5C 204.5,188.5 204.5,186.5 204.5,184.5C 201.221,185.031 199.887,187.031 200.5,190.5C 199.5,190.5 198.5,190.5 197.5,190.5C 197.357,188.738 197.691,187.071 198.5,185.5C 197.311,184.571 195.978,184.238 194.5,184.5C 194.5,186.5 194.5,188.5 194.5,190.5C 193.5,190.5 192.5,190.5 191.5,190.5C 191.676,187.273 192.343,184.273 193.5,181.5C 193.435,181.938 193.601,182.272 194,182.5C 194.278,181.584 194.778,180.918 195.5,180.5C 216.474,182.489 237.807,183.156 259.5,182.5C 259.451,178.922 258.785,175.589 257.5,172.5C 257.533,169.164 256.866,165.997 255.5,163C 256.056,162.617 256.389,162.117 256.5,161.5C 257.404,160.791 257.737,159.791 257.5,158.5 Z"/></g>
<g><path style="opacity:1" fill="#a1c08b" d="M 219.5,184.5 C 220.568,183.566 221.901,183.232 223.5,183.5C 223.5,185.833 223.5,188.167 223.5,190.5C 222.539,188.735 222.205,186.735 222.5,184.5C 221.5,184.5 220.5,184.5 219.5,184.5 Z"/></g>
<g><path style="opacity:1" fill="#a4c387" d="M 229.5,184.5 C 228.5,184.5 227.5,184.5 226.5,184.5C 226.795,186.735 226.461,188.735 225.5,190.5C 225.5,188.167 225.5,185.833 225.5,183.5C 227.099,183.232 228.432,183.566 229.5,184.5 Z"/></g>
</svg>
